<?xml version="1.0" encoding="UTF-8"?>
<!DOCTYPE svg PUBLIC "-//W3C//DTD SVG 1.1//EN" "http://www.w3.org/Graphics/SVG/1.1/DTD/svg11.dtd">
<svg xmlns="http://www.w3.org/2000/svg" version="1.1" width="974px" height="959px" style="shape-rendering:geometricPrecision; text-rendering:geometricPrecision; image-rendering:optimizeQuality; fill-rule:evenodd; clip-rule:evenodd" xmlns:xlink="http://www.w3.org/1999/xlink">
<g><path style="opacity:1" fill="#000000" d="M -0.5,-0.5 C 324.167,-0.5 648.833,-0.5 973.5,-0.5C 973.5,319.167 973.5,638.833 973.5,958.5C 648.833,958.5 324.167,958.5 -0.5,958.5C -0.5,638.833 -0.5,319.167 -0.5,-0.5 Z"/></g>
<g><path style="opacity:1" fill="#f4f3ee" d="M 205.5,38.5 C 220.812,64.447 235.646,90.7803 250,117.5C 264.92,91.328 279.587,64.9946 294,38.5C 298.169,68.3412 301.835,98.3412 305,128.5C 328.333,109.833 351.667,91.1667 375,72.5C 367.574,101.289 359.408,129.956 350.5,158.5C 350.833,158.833 351.167,159.167 351.5,159.5C 380.437,150.795 409.437,142.628 438.5,135C 419.62,158.592 400.62,182.092 381.5,205.5C 411.799,209.263 442.133,212.763 472.5,216C 445.833,230.667 419.167,245.333 392.5,260C 419.167,274.667 445.833,289.333 472.5,304C 442.089,307.379 411.756,311.045 381.5,315C 400.287,338.075 418.953,361.242 437.5,384.5C 437.167,384.833 436.833,385.167 436.5,385.5C 407.777,376.826 379.11,368.826 350.5,361.5C 359.809,389.917 367.976,418.583 375,447.5C 351.667,428.833 328.333,410.167 305,391.5C 301.553,421.524 297.886,451.524 294,481.5C 279.587,455.005 264.92,428.672 250,402.5C 235.333,429.167 220.667,455.833 206,482.5C 202.755,452.13 199.255,421.796 195.5,391.5C 172.092,410.62 148.592,429.62 125,448.5C 132.628,419.437 140.795,390.437 149.5,361.5C 149.167,361.167 148.833,360.833 148.5,360.5C 119.927,369.307 91.2601,377.474 62.5,385C 81.1667,361.667 99.8333,338.333 118.5,315C 88.4794,311.513 58.4794,307.847 28.5,304C 54.9946,289.587 81.328,274.92 107.5,260C 81.0054,245.587 54.672,230.92 28.5,216C 58.4754,212.244 88.4754,208.744 118.5,205.5C 100.48,182.134 81.9801,159.134 63,136.5C 62.4092,135.517 62.7425,134.85 64,134.5C 92.3598,143.342 120.86,151.676 149.5,159.5C 141.792,130.672 133.459,102.006 124.5,73.5C 125.002,72.479 125.668,72.3123 126.5,73C 149.5,91.5 172.5,110 195.5,128.5C 199.489,98.5687 202.822,68.5687 205.5,38.5 Z"/></g>
<g><path style="opacity:1" fill="#cbdefe" d="M 552.5,105.5 C 579.513,128.345 606.679,151.012 634,173.5C 663.276,151.229 692.276,128.562 721,105.5C 749.69,128.357 778.523,151.024 807.5,173.5C 834.61,151.524 861.444,129.191 888,106.5C 888.833,139.838 888.667,173.172 887.5,206.5C 860.833,228.833 834.167,251.167 807.5,273.5C 778.523,251.024 749.69,228.357 721,205.5C 692.076,228.046 663.243,250.713 634.5,273.5C 607.241,250.952 580.074,228.286 553,205.5C 552.5,172.168 552.333,138.835 552.5,105.5 Z"/></g>
<g><path style="opacity:1" fill="#cbdefe" d="M 720.5,273.5 C 747.292,294.453 773.958,315.619 800.5,337C 802.748,338.914 805.248,340.414 808,341.5C 834.948,319.556 861.615,297.223 888,274.5C 888.667,307.833 888.667,341.167 888,374.5C 861.074,396.714 834.241,419.048 807.5,441.5C 778.523,419.024 749.69,396.357 721,373.5C 692.5,396 664,418.5 635.5,441C 634.092,441.315 632.759,440.982 631.5,440C 605.333,417.833 579.167,395.667 553,373.5C 552.167,340.495 552.333,307.495 553.5,274.5C 580.199,297.035 607.032,319.369 634,341.5C 663.296,319.365 692.129,296.698 720.5,273.5 Z"/></g>
<g><path style="opacity:1" fill="#f4f3ed" d="M 764.5,474.5 C 768.518,504.647 772.184,534.98 775.5,565.5C 799.275,546.86 822.775,527.86 846,508.5C 837.847,537.773 829.68,567.106 821.5,596.5C 850.413,587.804 879.413,579.637 908.5,572C 889.643,595.356 870.976,618.856 852.5,642.5C 882.49,646.142 912.49,649.642 942.5,653C 916.005,667.413 889.672,682.08 863.5,697C 889.672,711.92 916.005,726.587 942.5,741C 912.496,744.434 882.496,747.934 852.5,751.5C 870.976,775.144 889.643,798.644 908.5,822C 879.552,814.465 850.719,806.298 822,797.5C 830.309,826.734 838.309,856.068 846,885.5C 822.775,866.14 799.275,847.14 775.5,828.5C 771.525,858.441 768.025,888.441 765,918.5C 750.08,892.328 735.413,865.995 721,839.5C 706.08,865.672 691.413,892.005 677,918.5C 673.554,888.492 669.888,858.492 666,828.5C 642.333,847.5 618.667,866.5 595,885.5C 602.76,856.375 611.26,827.375 620.5,798.5C 620,798.167 619.5,797.833 619,797.5C 590.484,806.396 561.984,814.396 533.5,821.5C 552.074,798.682 570.407,775.682 588.5,752.5C 587.624,751.749 586.624,751.249 585.5,751C 556.425,748.177 527.425,744.844 498.5,741C 525.167,726.333 551.833,711.667 578.5,697C 551.833,682.333 525.167,667.667 498.5,653C 528.831,649.333 559.164,645.667 589.5,642C 570.786,618.742 551.953,595.575 533,572.5C 532.333,571.833 532.333,571.167 533,570.5C 561.489,579.624 590.155,588.291 619,596.5C 619.5,596.167 620,595.833 620.5,595.5C 611.7,566.959 603.533,538.293 596,509.5C 619.333,528.167 642.667,546.833 666,565.5C 669.156,535.432 672.822,505.432 677,475.5C 691.413,501.995 706.08,528.328 721,554.5C 735.781,527.934 750.281,501.268 764.5,474.5 Z"/></g>
<g><path style="opacity:1" fill="#cbddfd" d="M 416.5,530.5 C 417.498,562.996 417.832,595.662 417.5,628.5C 391.14,651.691 364.306,674.358 337,696.5C 307.724,674.229 278.724,651.562 250,628.5C 221.31,651.357 192.477,674.024 163.5,696.5C 136.479,673.645 109.313,650.978 82,628.5C 81.1668,595.495 81.3334,562.495 82.5,529.5C 108.646,551.145 134.646,572.979 160.5,595C 161.609,595.638 162.775,596.138 164,596.5C 192.848,574.408 221.514,552.075 250,529.5C 279.276,551.771 308.276,574.438 337,597.5C 363.373,574.956 389.873,552.623 416.5,530.5 Z"/></g>
<g><path style="opacity:1" fill="#a1b1ca" d="M 416.5,530.5 C 416.56,529.957 416.893,529.624 417.5,529.5C 418.83,562.664 418.83,595.664 417.5,628.5C 417.832,595.662 417.498,562.996 416.5,530.5 Z"/></g>
<g><path style="opacity:1" fill="#6c7687" d="M 83.5,698.5 C 82.5017,730.996 82.1684,763.662 82.5,796.5C 81.17,763.664 81.17,730.664 82.5,697.5C 83.1067,697.624 83.44,697.957 83.5,698.5 Z"/></g>
<g><path style="opacity:1" fill="#cbdefe" d="M 416.5,698.5 C 417.498,730.996 417.832,763.662 417.5,796.5C 391.14,819.691 364.306,842.358 337,864.5C 308,842.167 279,819.833 250,797.5C 221.152,819.592 192.486,841.925 164,864.5C 162.775,864.138 161.609,863.638 160.5,863C 134.308,840.969 108.308,818.802 82.5,796.5C 82.1684,763.662 82.5017,730.996 83.5,698.5C 110.147,720.81 136.814,743.144 163.5,765.5C 192.26,742.708 221.094,720.041 250,697.5C 279.276,719.771 308.276,742.438 337,765.5C 363.373,742.956 389.873,720.623 416.5,698.5 Z"/></g>
<g><path style="opacity:1" fill="#a1b1ca" d="M 416.5,698.5 C 416.56,697.957 416.893,697.624 417.5,697.5C 418.83,730.664 418.83,763.664 417.5,796.5C 417.832,763.662 417.498,730.996 416.5,698.5 Z"/></g>
</svg>
