<?xml version="1.0" encoding="UTF-8"?>
<svg version="1.1" xmlns="http://www.w3.org/2000/svg" width="157" height="166">
<path d="M0 0 C1.92647199 0.8740494 3.75026788 1.84601041 5.59056091 2.88911438 C6.27315475 3.25624039 6.9557486 3.62336639 7.6590271 4.00161743 C9.8610992 5.19141159 12.04776188 6.40684181 14.23509216 7.62348938 C15.76071373 8.4545049 17.28725218 9.28383928 18.81468201 10.11152649 C22.56142002 12.14662466 26.29674923 14.2016923 30.02934265 16.2625885 C32.88008938 17.83171909 35.74248604 19.37893283 38.60618591 20.92427063 C42.97841415 23.28592029 47.33739461 25.67010481 51.6872406 28.07270813 C54.07645169 29.38939376 56.47188628 30.69424071 58.86790466 31.99848938 C60.34478592 32.81040984 61.82136688 33.62287686 63.29759216 34.43598938 C63.96033142 34.79442932 64.62307068 35.15286926 65.30589294 35.52217102 C68.42321681 37.25480756 70.02903348 38.34565135 72.04759216 41.37348938 C72.25722425 44.00400043 72.35165034 46.53019042 72.35398865 49.1620636 C72.36231216 49.954263 72.37063568 50.7464624 72.37921143 51.56266785 C72.40332969 54.18455402 72.41208569 56.8061915 72.41868591 59.42817688 C72.42765085 61.25037207 72.43677266 63.07256648 72.44604492 64.89476013 C72.46254242 68.71630137 72.47023642 72.53775492 72.47312927 76.35932922 C72.47851396 81.25452271 72.516194 86.14889134 72.56187344 91.04385185 C72.59162672 94.80826318 72.59885245 98.57247547 72.59985542 102.33699417 C72.60406116 104.14152428 72.61650969 105.9460548 72.63737297 107.75046921 C72.66425251 110.27630377 72.65947327 112.80022119 72.6469574 115.3261261 C72.66179169 116.07019714 72.67662598 116.81426819 72.69190979 117.58088684 C72.63682972 121.48751003 72.19833227 123.1880471 69.70341492 126.25732422 C66.75296598 128.60824815 63.82194842 130.34865203 60.47337341 132.08833313 C59.84031281 132.42081055 59.2072522 132.75328796 58.55500793 133.09584045 C56.49431032 134.1759713 54.42727792 135.24333707 52.36009216 136.31098938 C50.92374977 137.06164428 49.48796427 137.81336566 48.05271912 138.56611633 C45.86183719 139.7149211 43.670598 140.86298253 41.47750854 142.00756836 C34.53113117 145.63302759 27.62899223 149.33676865 20.73509216 153.06098938 C19.7126239 153.61198303 18.69015564 154.16297668 17.63670349 154.73066711 C16.66241394 155.25604065 15.68812439 155.78141418 14.68431091 156.32270813 C13.74635681 156.82334778 12.80840271 157.32398743 11.84202576 157.83979797 C9.9367125 158.88550633 8.05442066 159.97401564 6.19456482 161.09858704 C5.26563416 161.64950012 4.33670349 162.20041321 3.37962341 162.76802063 C2.5685614 163.26793518 1.75749939 163.76784973 0.92185974 164.28291321 C-3.64816893 166.01690778 -8.21017103 166.25344922 -12.90481567 164.74697876 C-14.83128766 163.87292936 -16.65508356 162.90096835 -18.49537659 161.85786438 C-19.17797043 161.49073837 -19.86056427 161.12361237 -20.56384277 160.74536133 C-22.76591487 159.55556717 -24.95257755 158.34013695 -27.13990784 157.12348938 C-28.66552941 156.29247386 -30.19206786 155.46313948 -31.71949768 154.63545227 C-35.46623569 152.6003541 -39.2015649 150.54528646 -42.93415833 148.48439026 C-45.78490505 146.91525967 -48.64730172 145.36804593 -51.51100159 143.82270813 C-55.88322982 141.46105847 -60.24221029 139.07687395 -64.59205627 136.67427063 C-66.98126736 135.357585 -69.37670195 134.05273805 -71.77272034 132.74848938 C-73.24960159 131.93656892 -74.72618255 131.1241019 -76.20240784 130.31098938 C-76.86514709 129.95254944 -77.52788635 129.5941095 -78.21070862 129.22480774 C-81.32803248 127.4921712 -82.93384915 126.40132741 -84.95240784 123.37348938 C-85.16203992 120.74297833 -85.25646601 118.21678834 -85.25880432 115.58491516 C-85.26712784 114.79271576 -85.27545135 114.00051636 -85.2840271 113.18431091 C-85.30814536 110.56242474 -85.31690136 107.94078726 -85.32350159 105.31880188 C-85.33246652 103.49660669 -85.34158834 101.67441228 -85.3508606 99.85221863 C-85.36735809 96.03067739 -85.37505209 92.20922384 -85.37794495 88.38764954 C-85.38332964 83.49245605 -85.42100967 78.59808742 -85.46668911 73.70312691 C-85.49644239 69.93871558 -85.50366812 66.17450329 -85.5046711 62.40998459 C-85.50887684 60.60545448 -85.52132536 58.80092396 -85.54218864 56.99650955 C-85.56906818 54.47067499 -85.56428895 51.94675757 -85.55177307 49.42085266 C-85.56660736 48.67678162 -85.58144165 47.93271057 -85.59672546 47.16609192 C-85.54164539 43.25946873 -85.10314794 41.55893166 -82.60823059 38.48965454 C-79.65778165 36.13873061 -76.72676409 34.39832673 -73.37818909 32.65864563 C-72.74512848 32.32616821 -72.11206787 31.9936908 -71.45982361 31.65113831 C-69.39912599 30.57100746 -67.3320936 29.50364169 -65.26490784 28.43598938 C-63.82856545 27.68533448 -62.39277995 26.9336131 -60.95753479 26.18086243 C-58.76665286 25.03205766 -56.57541367 23.88399623 -54.38232422 22.7394104 C-47.43594685 19.11395117 -40.53380791 15.41021011 -33.63990784 11.68598938 C-32.61743958 11.13499573 -31.59497131 10.58400208 -30.54151917 10.01631165 C-29.56722961 9.49093811 -28.59294006 8.96556458 -27.58912659 8.42427063 C-26.65117249 7.92363098 -25.71321838 7.42299133 -24.74684143 6.90718079 C-22.84152817 5.86147243 -20.95923633 4.77296312 -19.09938049 3.64839172 C-18.17044983 3.09747864 -17.24151917 2.54656555 -16.28443909 1.97895813 C-15.47337708 1.47904358 -14.66231506 0.97912903 -13.82667542 0.46406555 C-9.25664674 -1.26992902 -4.69464464 -1.50647046 0 0 Z " fill="#E2B6B0" transform="translate(84.95240783691406,0.6265106201171875)"/>
<path d="M0 0 C8.31249807 -0.15052813 16.06868401 0.200712 24 3 C24.99 4.485 24.99 4.485 26 6 C27.96720017 6.45901337 29.93532084 6.91487917 31.91015625 7.33984375 C35.35035109 8.4265595 37.34602749 10.58193616 40 13 C40.928125 13.45375 41.85625 13.9075 42.8125 14.375 C43.534375 14.91125 44.25625 15.4475 45 16 C45.2165625 17.5778125 45.2165625 17.5778125 45.4375 19.1875 C46.00021002 23.00142348 46.27103335 23.66813389 48.5625 26.4375 C51.59311877 30.18247891 53.72310485 34.182846 55.8125 38.5 C59.5697711 46.24352221 63.70897379 53.71153393 67.97460938 61.18408203 C69.94756883 64.67809928 71.82905257 68.22195865 73.7109375 71.765625 C74.9515293 74.03660365 74.9515293 74.03660365 76.6015625 76.046875 C79.25965707 79.75929759 79.11562882 83.28717915 79.0625 87.75 C79.05347656 88.73484375 79.04445312 89.7196875 79.03515625 90.734375 C79.01775391 91.85585937 79.01775391 91.85585937 79 93 C76.36 93.33 73.72 93.66 71 94 C70.67 94.99 70.34 95.98 70 97 C67.36 96.67 64.72 96.34 62 96 C62.0309375 97.4540625 62.0309375 97.4540625 62.0625 98.9375 C62 102 62 102 61 103 C59.08258745 102.96765102 57.1657362 102.89894176 55.25 102.8125 C50.41523515 102.75104404 50.41523515 102.75104404 46.0625 104.6875 C45.381875 105.450625 44.70125 106.21375 44 107 C37.9 113.1 37.9 113.1 35 115 C34.34 115 33.68 115 33 115 C33.58818828 112.54921548 34.25805379 110.16132519 35 107.75 C36.85567036 100.79123616 37.14902888 94.15338638 37 87 C35.515 86.505 35.515 86.505 34 86 C34.33 84.783125 34.66 83.56625 35 82.3125 C36.37888565 76.2337506 36.17245366 70.19875085 36 64 C31.82237097 62.42589988 28.40275519 61.75873448 23.9453125 61.8046875 C22.28242188 61.81435547 22.28242188 61.81435547 20.5859375 61.82421875 C19.44382812 61.84097656 18.30171875 61.85773438 17.125 61.875 C15.9596875 61.88402344 14.794375 61.89304688 13.59375 61.90234375 C10.72895423 61.92582568 7.86458465 61.95866859 5 62 C5 60.02 5 58.04 5 56 C8.33325754 55.94125224 11.66637938 55.90615533 15 55.875 C15.93457031 55.85824219 16.86914062 55.84148437 17.83203125 55.82421875 C23.59209963 55.78393855 28.4774282 56.34583345 34 58 C34 56.02 34 54.04 34 52 C26.29020024 48.46634178 18.34445844 47.86077545 10 47 C9.49339844 45.50146484 9.49339844 45.50146484 8.9765625 43.97265625 C8.52642664 42.66913783 8.07588475 41.36575957 7.625 40.0625 C7.40328125 39.40314453 7.1815625 38.74378906 6.953125 38.06445312 C5.87090848 34.32423336 5.87090848 34.32423336 3 32 C3.495 39.92 3.495 39.92 4 48 C1.703463 49.1482685 0.41686833 49.11561175 -2.1328125 49.09765625 C-2.93847656 49.09443359 -3.74414062 49.09121094 -4.57421875 49.08789062 C-5.83685547 49.07532227 -5.83685547 49.07532227 -7.125 49.0625 C-8.39923828 49.05573242 -8.39923828 49.05573242 -9.69921875 49.04882812 C-11.79950909 49.03702874 -13.8997633 49.01909306 -16 49 C-16 44.05 -16 39.1 -16 34 C-16.99 34.495 -16.99 34.495 -18 35 C-18.31241455 37.71446979 -18.51336592 40.33909361 -18.625 43.0625 C-18.66367187 43.82111328 -18.70234375 44.57972656 -18.7421875 45.36132812 C-18.83673562 47.24047195 -18.91946756 49.12020336 -19 51 C-19.65226562 51.12117188 -20.30453125 51.24234375 -20.9765625 51.3671875 C-24.86957829 52.11363596 -28.60900518 52.86966839 -32.375 54.125 C-35 55 -35 55 -39 55 C-39 53.35 -39 51.7 -39 50 C-39.66 50 -40.32 50 -41 50 C-40.67 52.64 -40.34 55.28 -40 58 C-41.485 58.495 -41.485 58.495 -43 59 C-43.02712351 61.39591038 -43.0468982 63.79150957 -43.0625 66.1875 C-43.07087891 66.86103516 -43.07925781 67.53457031 -43.08789062 68.22851562 C-43.10606538 71.95434131 -42.89299392 75.3788042 -42 79 C-41.030625 78.236875 -40.06125 77.47375 -39.0625 76.6875 C-38.24458984 76.04361328 -38.24458984 76.04361328 -37.41015625 75.38671875 C-35.72844923 73.94316909 -35.72844923 73.94316909 -35 71 C-32.4375 69.3125 -32.4375 69.3125 -30 68 C-32.91652174 67.83318891 -32.91652174 67.83318891 -36 68 C-36.66 68.66 -37.32 69.32 -38 70 C-39.32 70 -40.64 70 -42 70 C-41.67 68.02 -41.34 66.04 -41 64 C-38.50276548 63.32114013 -36.00303859 62.65682573 -33.5 62 C-32.45585938 61.71382812 -32.45585938 61.71382812 -31.390625 61.421875 C-26.45693739 60.1427708 -22.09811918 59.48640369 -17 60 C-14.94140625 61.71484375 -14.94140625 61.71484375 -13.5625 63.9375 C-13.08941406 64.66839844 -12.61632812 65.39929688 -12.12890625 66.15234375 C-11.75636719 66.76207031 -11.38382813 67.37179688 -11 68 C-10.67 68.33 -10.34 68.66 -10 69 C-9.53445636 76.21592649 -9.53445636 76.21592649 -11.1875 79 C-13.55995679 80.30894168 -15.3335118 80.21620175 -18 80 C-18.33 79.01 -18.66 78.02 -19 77 C-20.32 77 -21.64 77 -23 77 C-23.33 79.64 -23.66 82.28 -24 85 C-27.3 85 -30.6 85 -34 85 C-33.67 83.35 -33.34 81.7 -33 80 C-33.598125 80.33 -34.19625 80.66 -34.8125 81 C-37 82 -37 82 -40 82 C-39.76672901 90.30444709 -39.37878198 96.88065167 -35 104 C-34.25938238 105.47346652 -33.53004201 106.95265943 -32.8125 108.4375 C-31.36417823 111.73901712 -31.36417823 111.73901712 -30 113 C-29.95936168 114.66617115 -29.957279 116.33388095 -30 118 C-38.65668121 119.20329037 -47.28446396 120.31145453 -56 121 C-56 121.66 -56 122.32 -56 123 C-58.31 122.67 -60.62 122.34 -63 122 C-63 121.01 -63 120.02 -63 119 C-63.99 118.67 -64.98 118.34 -66 118 C-66 117.01 -66 116.02 -66 115 C-66.66 115 -67.32 115 -68 115 C-69.2076688 110.68119244 -69.22118668 106.58386068 -69.25 102.125 C-69.270625 101.33480469 -69.29125 100.54460937 -69.3125 99.73046875 C-69.34616569 94.67219812 -68.63660923 91.44846631 -66 87 C-63.82666602 82.03105265 -62.56188524 77.39409829 -62 72 C-61.34 72 -60.68 72 -60 72 C-58.24416588 64.34957992 -56.70462722 56.67777733 -55.53515625 48.9140625 C-54.73410632 43.65758609 -53.83425671 38.79585733 -51.78125 33.87890625 C-50.96139493 31.97144442 -50.96139493 31.97144442 -50.28125 29.83984375 C-48.84957166 25.5525896 -47.81977526 23.58758969 -44 21 C-43.71125 20.236875 -43.4225 19.47375 -43.125 18.6875 C-39.80635557 10.7596272 -32.16077978 7.54914915 -24.6875 4.3515625 C-20.09332593 2.6676809 -16.77863916 2.30238844 -12 3 C-10.14591753 3.16760068 -8.29174946 3.33425703 -6.4375 3.5 C-4.95783199 3.6621554 -3.47845724 3.82715323 -2 4 C-1.34 2.68 -0.68 1.36 0 0 Z " fill="#4B2D2F" transform="translate(78,11)"/>
<path d="M0 0 C1.92647199 0.8740494 3.75026788 1.84601041 5.59056091 2.88911438 C6.27315475 3.25624039 6.9557486 3.62336639 7.6590271 4.00161743 C9.8610992 5.19141159 12.04776188 6.40684181 14.23509216 7.62348938 C15.76071373 8.4545049 17.28725218 9.28383928 18.81468201 10.11152649 C22.56142002 12.14662466 26.29674923 14.2016923 30.02934265 16.2625885 C32.88008938 17.83171909 35.74248604 19.37893283 38.60618591 20.92427063 C42.97841415 23.28592029 47.33739461 25.67010481 51.6872406 28.07270813 C54.07645169 29.38939376 56.47188628 30.69424071 58.86790466 31.99848938 C60.34478592 32.81040984 61.82136688 33.62287686 63.29759216 34.43598938 C63.96033142 34.79442932 64.62307068 35.15286926 65.30589294 35.52217102 C68.42321681 37.25480756 70.02903348 38.34565135 72.04759216 41.37348938 C72.2881012 43.67041016 72.2881012 43.67041016 72.27464294 46.39570618 C72.27441635 47.92695381 72.27441635 47.92695381 72.27418518 49.48913574 C72.26386261 50.58921463 72.25354004 51.68929352 72.24290466 52.82270813 C72.24007477 53.95046158 72.23724487 55.07821503 72.23432922 56.24014282 C72.22312132 59.84719896 72.1980154 63.45400811 72.17259216 67.06098938 C72.16256316 69.50434517 72.15343717 71.94770485 72.14524841 74.3910675 C72.12317999 80.38529261 72.08969633 86.37937335 72.04759216 92.37348938 C71.74667664 91.75884827 71.44576111 91.14420715 71.13572693 90.51094055 C69.91150994 88.10617957 68.4779485 85.93409691 66.98509216 83.68598938 C63.45059335 78.18951306 60.40825746 72.51004192 57.39402771 66.72016907 C54.62272708 61.4107287 51.66818432 56.2403568 48.60618591 51.09223938 C46.6237611 47.63417504 44.90781655 44.07120693 43.17649841 40.48286438 C42.02791502 38.16418226 42.02791502 38.16418226 39.79759216 35.68598938 C38.04759216 33.37348938 38.04759216 33.37348938 37.86009216 29.93598938 C36.90025237 25.72746107 36.14803773 25.35556697 32.67259216 23.06098938 C31.13991113 22.14986792 29.59888185 21.25255353 28.04759216 20.37348938 C27.05759216 19.71348938 26.06759216 19.05348938 25.04759216 18.37348938 C23.85134216 18.06411438 22.65509216 17.75473938 21.42259216 17.43598938 C20.30884216 17.08536438 19.19509216 16.73473938 18.04759216 16.37348938 C17.55259216 14.88848938 17.55259216 14.88848938 17.04759216 13.37348938 C15.59352966 13.40442688 15.59352966 13.40442688 14.11009216 13.43598938 C11.04759216 13.37348938 11.04759216 13.37348938 10.04759216 12.37348938 C5.94226261 11.58736244 1.91327494 11.25065146 -2.26490784 11.12348938 C-3.10666565 11.09770813 -3.94842346 11.07192688 -4.81568909 11.04536438 C-5.52080627 11.15364563 -6.22592346 11.26192688 -6.95240784 11.37348938 C-7.61240784 12.36348938 -8.27240784 13.35348938 -8.95240784 14.37348938 C-11.86888161 14.3825094 -14.67453321 14.25653299 -17.57740784 14.06098938 C-28.97066073 13.64966886 -38.36726398 17.31882052 -46.83131409 24.97895813 C-48.99321999 27.41956276 -49.77217138 29.38355702 -50.95240784 32.37348938 C-51.58791565 32.77696594 -52.22342346 33.1804425 -52.87818909 33.59614563 C-55.79730223 36.09745727 -56.14203467 38.49558853 -57.07740784 42.18598938 C-58.91221752 49.25986309 -58.91221752 49.25986309 -60.01490784 52.37739563 C-61.07628445 55.7693784 -61.45983779 58.96531608 -61.82740784 62.49848938 C-62.68729379 69.50933371 -64.42783692 75.79244773 -66.95240784 82.37348938 C-67.61240784 82.37348938 -68.27240784 82.37348938 -68.95240784 82.37348938 C-68.89053284 83.36348938 -68.82865784 84.35348938 -68.76490784 85.37348938 C-68.76490784 90.74467554 -70.71395356 95.40349716 -73.54615784 99.90864563 C-75.56200748 104.87547517 -75.27329856 109.44706312 -75.13990784 114.74848938 C-75.12637268 115.77071594 -75.11283752 116.7929425 -75.09889221 117.84614563 C-75.06371 120.35580987 -75.01448323 122.86437028 -74.95240784 125.37348938 C-74.29240784 125.37348938 -73.63240784 125.37348938 -72.95240784 125.37348938 C-72.62240784 126.36348938 -72.29240784 127.35348938 -71.95240784 128.37348938 C-71.29240784 128.70348938 -70.63240784 129.03348938 -69.95240784 129.37348938 C-69.95240784 130.36348938 -69.95240784 131.35348938 -69.95240784 132.37348938 C-67.64240784 132.70348938 -65.33240784 133.03348938 -62.95240784 133.37348938 C-62.95240784 132.71348938 -62.95240784 132.05348938 -62.95240784 131.37348938 C-53.7183397 129.30091297 -43.22179223 127.64621563 -33.95240784 130.37348938 C-33.70490784 131.15723938 -33.45740784 131.94098938 -33.20240784 132.74848938 C-32.23932755 135.52803996 -32.23932755 135.52803996 -29.87037659 136.22895813 C-28.24064141 136.69349682 -26.59930571 137.11940907 -24.94850159 137.50239563 C-24.28979065 137.78985657 -23.63107971 138.0773175 -22.95240784 138.37348938 C-22.17506409 140.46333313 -22.17506409 140.46333313 -21.95240784 142.37348938 C-22.94240784 142.70348938 -23.93240784 143.03348938 -24.95240784 143.37348938 C-24.95240784 147.99348938 -24.95240784 152.61348938 -24.95240784 157.37348938 C-35.13825676 152.33413885 -45.25009848 147.17582288 -55.28199768 141.83638 C-57.34611165 140.7385414 -59.41283935 139.64573628 -61.47975159 138.55317688 C-82.13099221 127.60561282 -82.13099221 127.60561282 -84.95240784 123.37348938 C-85.16203992 120.74297833 -85.25646601 118.21678834 -85.25880432 115.58491516 C-85.26712784 114.79271576 -85.27545135 114.00051636 -85.2840271 113.18431091 C-85.30814536 110.56242474 -85.31690136 107.94078726 -85.32350159 105.31880188 C-85.33246652 103.49660669 -85.34158834 101.67441228 -85.3508606 99.85221863 C-85.36735809 96.03067739 -85.37505209 92.20922384 -85.37794495 88.38764954 C-85.38332964 83.49245605 -85.42100967 78.59808742 -85.46668911 73.70312691 C-85.49644239 69.93871558 -85.50366812 66.17450329 -85.5046711 62.40998459 C-85.50887684 60.60545448 -85.52132536 58.80092396 -85.54218864 56.99650955 C-85.56906818 54.47067499 -85.56428895 51.94675757 -85.55177307 49.42085266 C-85.56660736 48.67678162 -85.58144165 47.93271057 -85.59672546 47.16609192 C-85.54164539 43.25946873 -85.10314794 41.55893166 -82.60823059 38.48965454 C-79.65778165 36.13873061 -76.72676409 34.39832673 -73.37818909 32.65864563 C-72.74512848 32.32616821 -72.11206787 31.9936908 -71.45982361 31.65113831 C-69.39912599 30.57100746 -67.3320936 29.50364169 -65.26490784 28.43598938 C-63.82856545 27.68533448 -62.39277995 26.9336131 -60.95753479 26.18086243 C-58.76665286 25.03205766 -56.57541367 23.88399623 -54.38232422 22.7394104 C-47.43594685 19.11395117 -40.53380791 15.41021011 -33.63990784 11.68598938 C-32.61743958 11.13499573 -31.59497131 10.58400208 -30.54151917 10.01631165 C-29.56722961 9.49093811 -28.59294006 8.96556458 -27.58912659 8.42427063 C-26.65117249 7.92363098 -25.71321838 7.42299133 -24.74684143 6.90718079 C-22.84152817 5.86147243 -20.95923633 4.77296312 -19.09938049 3.64839172 C-18.17044983 3.09747864 -17.24151917 2.54656555 -16.28443909 1.97895813 C-15.47337708 1.47904358 -14.66231506 0.97912903 -13.82667542 0.46406555 C-9.25664674 -1.26992902 -4.69464464 -1.50647046 0 0 Z " fill="#ECDCD3" transform="translate(84.95240783691406,0.6265106201171875)"/>
<path d="M0 0 C2.64 0 5.28 0 8 0 C8.14584064 3.22868746 8.23424106 6.45652365 8.3125 9.6875 C8.35439453 10.59951172 8.39628906 11.51152344 8.43945312 12.45117188 C8.45556641 13.33740234 8.47167969 14.22363281 8.48828125 15.13671875 C8.51446533 15.94842529 8.54064941 16.76013184 8.56762695 17.59643555 C7.71372905 21.21218819 5.81373659 22.63525889 3 25 C0.69998739 26.4044982 -1.53431388 27.67263132 -3.92578125 28.890625 C-4.58659195 29.23704544 -5.24740265 29.58346588 -5.92823792 29.94038391 C-8.05208496 31.05194531 -10.1821515 32.15095932 -12.3125 33.25 C-15.20900441 34.76055917 -18.10243081 36.2769753 -20.99609375 37.79296875 C-21.69873352 38.15990341 -22.40137329 38.52683807 -23.12530518 38.90489197 C-29.08170623 42.02191327 -34.95398552 45.27198124 -40.7590332 48.66308594 C-44.80137469 51 -44.80137469 51 -47 51 C-47.09087891 49.95199219 -47.09087891 49.95199219 -47.18359375 48.8828125 C-47.26738281 47.97273438 -47.35117188 47.06265625 -47.4375 46.125 C-47.51871094 45.22007812 -47.59992188 44.31515625 -47.68359375 43.3828125 C-47.86989285 40.98889139 -47.86989285 40.98889139 -49 39 C-49.06950541 37.45976004 -49.08452357 35.91665012 -49.0625 34.375 C-49.05347656 33.55773437 -49.04445313 32.74046875 -49.03515625 31.8984375 C-49.02355469 31.27195313 -49.01195313 30.64546875 -49 30 C-47.4221875 29.1028125 -47.4221875 29.1028125 -45.8125 28.1875 C-45.17183594 27.81882813 -44.53117187 27.45015625 -43.87109375 27.0703125 C-42.38151298 26.21823498 -40.88015622 25.38675221 -39.375 24.5625 C-35.70122518 22.14554288 -32.83285482 18.91429635 -29.8828125 15.67578125 C-23.5956697 9.2781615 -23.5956697 9.2781615 -18.68359375 8.421875 C-15.736232 8.43579406 -12.91759703 8.59394268 -10 9 C-9.67 7.02 -9.34 5.04 -9 3 C-6.36 3.33 -3.72 3.66 -1 4 C-0.67 2.68 -0.34 1.36 0 0 Z " fill="#EFDFD6" transform="translate(149,104)"/>
<path d="M0 0 C2.05859375 1.71484375 2.05859375 1.71484375 3.4375 3.9375 C3.91058594 4.66839844 4.38367188 5.39929688 4.87109375 6.15234375 C5.24363281 6.76207031 5.61617187 7.37179688 6 8 C6.495 8.495 6.495 8.495 7 9 C7.46554364 16.21592649 7.46554364 16.21592649 5.8125 19 C3.44004321 20.30894168 1.6664882 20.21620175 -1 20 C-1.495 18.515 -1.495 18.515 -2 17 C-3.32 17 -4.64 17 -6 17 C-6.33 19.64 -6.66 22.28 -7 25 C-10.3 25 -13.6 25 -17 25 C-16.67 23.35 -16.34 21.7 -16 20 C-16.598125 20.33 -17.19625 20.66 -17.8125 21 C-20 22 -20 22 -23 22 C-22.76672901 30.30444709 -22.37878198 36.88065167 -18 44 C-17.25938238 45.47346652 -16.53004201 46.95265943 -15.8125 48.4375 C-14.36417823 51.73901712 -14.36417823 51.73901712 -13 53 C-12.95936168 54.66617115 -12.957279 56.33388095 -13 58 C-15.27040603 58.3155895 -17.54135358 58.62728359 -19.8125 58.9375 C-20.48941895 59.0303125 -21.16633789 59.123125 -21.86376953 59.21875 C-26.90813713 59.89466432 -31.94138729 60.35642403 -37.0234375 60.65625 C-37.67570312 60.7696875 -38.32796875 60.883125 -39 61 C-39.33 61.66 -39.66 62.32 -40 63 C-40 61.68 -40 60.36 -40 59 C-38.35 59.33 -36.7 59.66 -35 60 C-34.814375 58.948125 -34.814375 58.948125 -34.625 57.875 C-34 55 -34 55 -33 52.3125 C-31.86293836 48.54598331 -31.66961585 45.08847557 -31.5390625 41.171875 C-31.36117188 40.45515625 -31.18328125 39.7384375 -31 39 C-29.68 38.34 -28.36 37.68 -27 37 C-27.33 40.3 -27.66 43.6 -28 47 C-27.34 47 -26.68 47 -26 47 C-26.01160156 46.36191406 -26.02320313 45.72382812 -26.03515625 45.06640625 C-26.04417969 44.24011719 -26.05320312 43.41382813 -26.0625 42.5625 C-26.07410156 41.73878906 -26.08570313 40.91507813 -26.09765625 40.06640625 C-26 38 -26 38 -25 37 C-24.92674832 34.13732433 -24.90761795 31.299281 -24.9375 28.4375 C-24.94201172 27.63119141 -24.94652344 26.82488281 -24.95117188 25.99414062 C-24.96299482 23.99606244 -24.98093086 21.99802217 -25 20 C-25.66 20 -26.32 20 -27 20 C-27 20.66 -27 21.32 -27 22 C-27.66 22.33 -28.32 22.66 -29 23 C-29.46523063 24.89533342 -29.46523063 24.89533342 -29.625 27.0625 C-29.74875 28.361875 -29.8725 29.66125 -30 31 C-30.66 31 -31.32 31 -32 31 C-32 27.37 -32 23.74 -32 20 C-31.01 20 -30.02 20 -29 20 C-28.34 18.02 -27.68 16.04 -27 14 C-26.34 14.33 -25.68 14.66 -25 15 C-25 16.32 -25 17.64 -25 19 C-23.5459375 17.8553125 -23.5459375 17.8553125 -22.0625 16.6875 C-21.51722656 16.25824219 -20.97195312 15.82898438 -20.41015625 15.38671875 C-18.72844923 13.94316909 -18.72844923 13.94316909 -18 11 C-15.4375 9.3125 -15.4375 9.3125 -13 8 C-15.91652174 7.83318891 -15.91652174 7.83318891 -19 8 C-19.66 8.66 -20.32 9.32 -21 10 C-22.32 10 -23.64 10 -25 10 C-24.67 8.02 -24.34 6.04 -24 4 C-21.50276548 3.32114013 -19.00303859 2.65682573 -16.5 2 C-15.80390625 1.80921875 -15.1078125 1.6184375 -14.390625 1.421875 C-9.45693739 0.1427708 -5.09811918 -0.51359631 0 0 Z " fill="#6B4547" transform="translate(61,71)"/>
<path d="M0 0 C0.125 5.75 0.125 5.75 -1 8 C1.475 8.495 1.475 8.495 4 9 C4 12.63 4 16.26 4 20 C1.03236117 21.69061826 -1.94637316 23.35187352 -4.9375 25 C-5.76830078 25.47695312 -6.59910156 25.95390625 -7.45507812 26.4453125 C-13.03034886 29.48242496 -17.62952409 31.19271856 -24 30 C-27.46875 28.5390625 -27.46875 28.5390625 -30.5 26.625 C-31.5209375 25.99851563 -32.541875 25.37203125 -33.59375 24.7265625 C-36 23 -36 23 -37 21 C-37.07065617 18.95944995 -37.08421976 16.91665743 -37.0625 14.875 C-37.05347656 13.77929688 -37.04445312 12.68359375 -37.03515625 11.5546875 C-37.02355469 10.71164063 -37.01195312 9.86859375 -37 9 C-35.125 9.3125 -35.125 9.3125 -33 10 C-32.01 11.485 -32.01 11.485 -31 13 C-31 11.02 -31 9.04 -31 7 C-20.605 6.505 -20.605 6.505 -10 6 C-10 5.34 -10 4.68 -10 4 C-6.94032461 1.87522542 -3.83293944 0 0 0 Z " fill="#CF978E" transform="translate(98,136)"/>
<path d="M0 0 C0.33 0 0.66 0 1 0 C1 1.65 1 3.3 1 5 C2.19302734 4.76023437 2.19302734 4.76023437 3.41015625 4.515625 C7.77703498 3.88839106 12.03176139 3.7775574 16.4375 3.75 C17.25798828 3.729375 18.07847656 3.70875 18.92382812 3.6875 C24.39258122 3.65258378 28.12381033 4.50612103 33 7 C33.33608711 15.05364285 33.0517291 21.49783264 30 29 C30.99 29.33 31.98 29.66 33 30 C32.030625 29.835 31.06125 29.67 30.0625 29.5 C26.32484427 28.95079344 22.68841998 28.95866658 18.91796875 29.0625 C17 29 17 29 15 28 C15 27.34 15 26.68 15 26 C13.72125 25.87625 12.4425 25.7525 11.125 25.625 C7.25 25.25 7.25 25.25 5 23 C4.875 19.875 4.875 19.875 5 17 C4.236875 16.855625 3.47375 16.71125 2.6875 16.5625 C0 16 0 16 -3 15 C-2.69163768 12.87439563 -2.37818386 10.74952935 -2.0625 8.625 C-1.88847656 7.44164063 -1.71445313 6.25828125 -1.53515625 5.0390625 C-1 2 -1 2 0 0 Z " fill="#D19389" transform="translate(82,68)"/>
<path d="M0 0 C9.31204646 0.03083459 9.31204646 0.03083459 12.109375 1.1328125 C12.356875 1.9165625 12.604375 2.7003125 12.859375 3.5078125 C13.82245529 6.28736308 13.82245529 6.28736308 16.19140625 6.98828125 C17.82114143 7.45281994 19.46247713 7.87873219 21.11328125 8.26171875 C21.77199219 8.54917969 22.43070313 8.83664063 23.109375 9.1328125 C23.88671875 11.22265625 23.88671875 11.22265625 24.109375 13.1328125 C23.119375 13.4628125 22.129375 13.7928125 21.109375 14.1328125 C21.109375 18.7528125 21.109375 23.3728125 21.109375 28.1328125 C6.88711695 21.21503743 -6.995232 13.67857079 -20.890625 6.1328125 C-20.890625 5.8028125 -20.890625 5.4728125 -20.890625 5.1328125 C-19.240625 5.1328125 -17.590625 5.1328125 -15.890625 5.1328125 C-15.890625 4.4728125 -15.890625 3.8128125 -15.890625 3.1328125 C-14.50037109 2.93365234 -14.50037109 2.93365234 -13.08203125 2.73046875 C-11.28572266 2.46556641 -11.28572266 2.46556641 -9.453125 2.1953125 C-8.25816406 2.02128906 -7.06320313 1.84726563 -5.83203125 1.66796875 C-3.19353836 1.18792423 -2.43016907 0.17071436 0 0 Z " fill="#F0E1D7" transform="translate(38.890625,129.8671875)"/>
<path d="M0 0 C2.05859375 1.71484375 2.05859375 1.71484375 3.4375 3.9375 C3.91058594 4.66839844 4.38367188 5.39929688 4.87109375 6.15234375 C5.42990234 7.06693359 5.42990234 7.06693359 6 8 C6.33 8.33 6.66 8.66 7 9 C7.46554364 16.21592649 7.46554364 16.21592649 5.8125 19 C3.44004321 20.30894168 1.6664882 20.21620175 -1 20 C-1.33 19.34 -1.66 18.68 -2 18 C-1.67 17.67 -1.34 17.34 -1 17 C-5.74705385 13.20235692 -10.24293568 13.73654112 -16 14 C-16.99 14 -17.98 14 -19 14 C-17.75453595 10.26360784 -16.36595047 9.81243487 -13 8 C-15.91652174 7.83318891 -15.91652174 7.83318891 -19 8 C-19.66 8.66 -20.32 9.32 -21 10 C-22.32 10 -23.64 10 -25 10 C-24.67 8.02 -24.34 6.04 -24 4 C-21.50276548 3.32114013 -19.00303859 2.65682573 -16.5 2 C-15.80390625 1.80921875 -15.1078125 1.6184375 -14.390625 1.421875 C-9.45693739 0.1427708 -5.09811918 -0.51359631 0 0 Z " fill="#DA9B91" transform="translate(61,71)"/>
<path d="M0 0 C1.02104551 0.97850195 2.0206121 1.97980427 3 3 C5.59915538 4.19027984 5.59915538 4.19027984 8 5 C8 5.66 8 6.32 8 7 C7.34 7 6.68 7 6 7 C5.896875 7.61875 5.79375 8.2375 5.6875 8.875 C5 11 5 11 2 13 C-0.52866005 13.22150947 -2.91108888 13.32461127 -5.4375 13.3125 C-7.41556641 13.33763672 -7.41556641 13.33763672 -9.43359375 13.36328125 C-13.06135659 12.9937501 -14.42895294 12.49214025 -17 10 C-16.1875 8.0625 -16.1875 8.0625 -15 6 C-14.01 5.67 -13.02 5.34 -12 5 C-11.67 3.35 -11.34 1.7 -11 0 C-7.01611946 -0.83383546 -3.91159585 -1.26862568 0 0 Z " fill="#C07E7C" transform="translate(80,113)"/>
<path d="M0 0 C1.875 0.1875 1.875 0.1875 4 1 C6.03054165 4.88865792 6.24619986 8.20087373 6.23046875 12.54296875 C6.22853516 13.78111328 6.22660156 15.01925781 6.22460938 16.29492188 C6.20624023 18.22174805 6.20624023 18.22174805 6.1875 20.1875 C6.18685547 21.48365234 6.18621094 22.77980469 6.18554688 24.11523438 C6.14041085 33.71917831 6.14041085 33.71917831 5 36 C4.01 36 3.02 36 2 36 C2.33 34.783125 2.66 33.56625 3 32.3125 C4.37888565 26.2337506 4.17245366 20.19875085 4 14 C-0.17762903 12.42589988 -3.59724481 11.75873448 -8.0546875 11.8046875 C-9.71757813 11.81435547 -9.71757813 11.81435547 -11.4140625 11.82421875 C-12.55617188 11.84097656 -13.69828125 11.85773438 -14.875 11.875 C-16.0403125 11.88402344 -17.205625 11.89304687 -18.40625 11.90234375 C-21.27104577 11.92582568 -24.13541535 11.95866859 -27 12 C-27 10.02 -27 8.04 -27 6 C-23.66674246 5.94125224 -20.33362062 5.90615533 -17 5.875 C-16.06542969 5.85824219 -15.13085938 5.84148437 -14.16796875 5.82421875 C-8.40790037 5.78393855 -3.5225718 6.34583345 2 8 C2.16681109 5.08347826 2.16681109 5.08347826 2 2 C1.34 1.34 0.68 0.68 0 0 Z " fill="#BB9591" transform="translate(110,61)"/>
<path d="M0 0 C0.66 0 1.32 0 2 0 C2.93854006 7.03905044 3.10808032 13.90272572 3 21 C3.66 21 4.32 21 5 21 C5.33 21.99 5.66 22.98 6 24 C6.66 24.33 7.32 24.66 8 25 C8 25.99 8 26.98 8 28 C10.31 28.33 12.62 28.66 15 29 C15 28.34 15 27.68 15 27 C16.74784829 26.63536268 18.49840502 26.2836922 20.25 25.9375 C21.71179687 25.64166016 21.71179687 25.64166016 23.203125 25.33984375 C25.868119 25.01602465 27.48871723 25.14496801 30 26 C25.35150485 28.3992233 21.08913926 28.19957409 16 28 C16 28.66 16 29.32 16 30 C9.91096186 30.49307121 6.61626958 29.17539201 1.625 26.0625 C0.99722656 25.68931641 0.36945312 25.31613281 -0.27734375 24.93164062 C-4.74764151 22.25235849 -4.74764151 22.25235849 -6 21 C-6.16796875 19.07421875 -6.16796875 19.07421875 -6.1875 16.6875 C-6.20167969 15.90761719 -6.21585937 15.12773438 -6.23046875 14.32421875 C-5.97984413 11.7967332 -5.26373772 10.18281969 -4 8 C-3.34 8 -2.68 8 -2 8 C-1.7834375 6.576875 -1.7834375 6.576875 -1.5625 5.125 C-1 2 -1 2 0 0 Z " fill="#D2C1B9" transform="translate(7,105)"/>
<path d="M0 0 C1.93359375 0.3515625 1.93359375 0.3515625 4 1 C5.0625 3.375 5.0625 3.375 6 6 C8.23013214 8.74636643 10.33735715 9.66789131 13.6875 10.6875 C14.89986328 11.06455078 14.89986328 11.06455078 16.13671875 11.44921875 C16.75160156 11.63097656 17.36648437 11.81273437 18 12 C18 14.97 18 17.94 18 21 C11.28931467 20.70823107 6.40237284 17.90171372 1 14 C-0.38226016 11.23547967 -0.09525387 8.9538637 -0.0625 5.875 C-0.05347656 4.77929688 -0.04445312 3.68359375 -0.03515625 2.5546875 C-0.02355469 1.71164063 -0.01195312 0.86859375 0 0 Z " fill="#4B2E31" transform="translate(61,145)"/>
<path d="M0 0 C3.02138567 -0.08149592 6.04053905 -0.14073421 9.0625 -0.1875 C9.91005859 -0.21263672 10.75761719 -0.23777344 11.63085938 -0.26367188 C17.2250736 -0.32846972 21.01960959 0.42533413 26 3 C26 7.29 26 11.58 26 16 C25.34 16 24.68 16 24 16 C23.67 16.99 23.34 17.98 23 19 C23 15.7 23 12.4 23 9 C18.02988327 7.00881759 13.87666865 6.75154305 8.625 6.875 C7.88894531 6.88402344 7.15289062 6.89304687 6.39453125 6.90234375 C4.5962112 6.92569856 2.79806089 6.96156164 1 7 C0.67 4.69 0.34 2.38 0 0 Z " fill="#E0B8B2" transform="translate(89,72)"/>
<path d="M0 0 C0.99 0 1.98 0 3 0 C3 3.63 3 7.26 3 11 C-0.12242126 12.67165956 -3.24770626 14.33750189 -6.375 16 C-7.26445313 16.47695312 -8.15390625 16.95390625 -9.0703125 17.4453125 C-9.92109375 17.89648438 -10.771875 18.34765625 -11.6484375 18.8125 C-12.43395996 19.23144531 -13.21948242 19.65039062 -14.02880859 20.08203125 C-16 21 -16 21 -18 21 C-18 17.7 -18 14.4 -18 11 C-16.78763672 10.77957031 -16.78763672 10.77957031 -15.55078125 10.5546875 C-8.37986582 9.25214456 -8.37986582 9.25214456 -2.8125 4.9375 C-1.06157674 2.19738298 -1.06157674 2.19738298 0 0 Z " fill="#58393B" transform="translate(99,145)"/>
<path d="M0 0 C0.66 0 1.32 0 2 0 C2 1.65 2 3.3 2 5 C3.32 5.33 4.64 5.66 6 6 C5.34 6.66 4.68 7.32 4 8 C4 8.99 4 9.98 4 11 C4.928125 10.690625 5.85625 10.38125 6.8125 10.0625 C11.27153014 8.57615662 14.00924486 7.94215534 18.6875 8.4375 C20.17830078 8.59025391 20.17830078 8.59025391 21.69921875 8.74609375 C22.45847656 8.82988281 23.21773437 8.91367188 24 9 C24 9.33 24 9.66 24 10 C22.77023438 10.20496094 21.54046875 10.40992187 20.2734375 10.62109375 C19.48839844 10.75193359 18.70335938 10.88277344 17.89453125 11.01757812 C14.65722656 11.55712891 11.41992188 12.09667969 8.18261719 12.63623047 C7.46235352 12.75627441 6.74208984 12.87631836 6 13 C4 13.33333333 2 13.66666667 0 14 C-0.33 15.98 -0.66 17.96 -1 20 C2.24983135 18.91215032 2.24983135 18.91215032 5 17 C7.33297433 16.95907063 9.66705225 16.95758277 12 17 C10.71034824 18.37562854 9.37310707 19.70766393 8 21 C7.34 21 6.68 21 6 21 C5.9175 21.5775 5.835 22.155 5.75 22.75 C4.78202213 25.6539336 3.31305716 27.03740604 1 29 C0.34 29 -0.32 29 -1 29 C-2.8009722 25.14179079 -3.24600726 22.11943571 -3.1875 17.875 C-3.18105469 16.84117188 -3.17460938 15.80734375 -3.16796875 14.7421875 C-3 12 -3 12 -2 9 C-1.34 8.67 -0.68 8.34 0 8 C0 5.36 0 2.72 0 0 Z " fill="#CC978D" transform="translate(37,61)"/>
<path d="M0 0 C1.32 0.33 2.64 0.66 4 1 C3.01 1 2.02 1 1 1 C1 2.32 1 3.64 1 5 C3.475 5.495 3.475 5.495 6 6 C5.67 7.65 5.34 9.3 5 11 C4.34 11 3.68 11 3 11 C2.67 11.99 2.34 12.98 2 14 C0.4221875 14.2165625 0.4221875 14.2165625 -1.1875 14.4375 C-4.85032185 14.90034298 -4.85032185 14.90034298 -7.75 15.75 C-10 16 -10 16 -11.8125 15 C-13.57886204 12.02507445 -13.19143369 9.38199514 -13 6 C-13.99 6 -14.98 6 -16 6 C-15.67 10.62 -15.34 15.24 -15 20 C-15.66 19.67 -16.32 19.34 -17 19 C-17 14.38 -17 9.76 -17 5 C-13 3 -13 3 -10 3 C-10.33 4.65 -10.66 6.3 -11 8 C-7.7 8 -4.4 8 -1 8 C-0.67 5.36 -0.34 2.72 0 0 Z " fill="#B77D75" transform="translate(55,88)"/>
<path d="M0 0 C5.61 0 11.22 0 17 0 C17 0.33 17 0.66 17 1 C12.05 1 7.1 1 2 1 C6.20943058 5.73647686 6.20943058 5.73647686 9 7 C9 7.66 9 8.32 9 9 C15.02122324 10.31372143 18.51448809 9.82882854 24.1171875 7.30078125 C26.3157419 5.78186296 27.01892693 4.45268266 28 2 C28.66 2 29.32 2 30 2 C30.375 4.1875 30.375 4.1875 30 7 C26.461842 11.09681453 24.00590116 12.26982389 18.625 12.8125 C17.09875 12.874375 15.5725 12.93625 14 13 C14 16.3 14 19.6 14 23 C13.34 23 12.68 23 12 23 C11.67 20.03 11.34 17.06 11 14 C9.5975 13.5875 8.195 13.175 6.75 12.75 C2.93182255 11.49330853 0.55315829 10.21919958 -2 7 C-1 5 -1 5 0 4 C0 2.68 0 1.36 0 0 Z " fill="#CC9992" transform="translate(67,143)"/>
<path d="M0 0 C1.92578125 1.09765625 1.92578125 1.09765625 4.80078125 3.09765625 C4.47078125 3.75765625 4.14078125 4.41765625 3.80078125 5.09765625 C1.82078125 4.43765625 -0.15921875 3.77765625 -2.19921875 3.09765625 C-2.52921875 5.73765625 -2.85921875 8.37765625 -3.19921875 11.09765625 C-6.49921875 11.09765625 -9.79921875 11.09765625 -13.19921875 11.09765625 C-12.86921875 9.44765625 -12.53921875 7.79765625 -12.19921875 6.09765625 C-14.17921875 6.42765625 -16.15921875 6.75765625 -18.19921875 7.09765625 C-18.19921875 5.44765625 -18.19921875 3.79765625 -18.19921875 2.09765625 C-12.59915774 -1.43922439 -6.24875114 -2.5638748 0 0 Z " fill="#654545" transform="translate(57.19921875,84.90234375)"/>
<path d="M0 0 C1.1240625 0.01289062 2.248125 0.02578125 3.40625 0.0390625 C6.33714995 0.35731679 8.0945188 0.70261783 10.5 2.375 C11.25 5 11.25 5 11.5 7.375 C7.6936543 6.70329194 4.14793184 5.64753436 0.5 4.375 C0.603125 5.138125 0.70625 5.90125 0.8125 6.6875 C0.5 9.375 0.5 9.375 -1.625 11.1875 C-4.8107302 12.50334508 -7.08664864 12.61314079 -10.5 12.375 C-10.98800711 5.0548934 -10.98800711 5.0548934 -8.890625 2.1328125 C-5.76232716 -0.1674065 -3.84863431 -0.09709857 0 0 Z " fill="#573739" transform="translate(99.5,77.625)"/>
<path d="M0 0 C2.33732471 7.01197413 0.6072866 13.99682268 -1 21 C-0.34 21.33 0.32 21.66 1 22 C-0.10095362 25.30286086 -0.6896019 25.78510901 -3.4375 27.6875 C-4.36369141 28.34298828 -4.36369141 28.34298828 -5.30859375 29.01171875 C-7 30 -7 30 -9 30 C-8.41181172 27.54921548 -7.74194621 25.16132519 -7 22.75 C-5.05552929 15.45823483 -4.861728 8.4974151 -5 1 C-2 0 -2 0 0 0 Z " fill="#623D3F" transform="translate(120,96)"/>
<path d="M0 0 C0.99 0 1.98 0 3 0 C4.71950693 1.86205673 6.19511586 3.65719112 7.6875 5.6875 C8.10322266 6.21794922 8.51894531 6.74839844 8.94726562 7.29492188 C10.80197827 9.77700858 11.94953466 11.69418865 12.45703125 14.76953125 C12 17 12 17 9 19 C6.875 18.8125 6.875 18.8125 5 18 C4.67 17.01 4.34 16.02 4 15 C5.65 15.33 7.3 15.66 9 16 C8.67 15.01 8.34 14.02 8 13 C6.03845602 12.11588917 6.03845602 12.11588917 3.6875 11.6875 C2.90761719 11.50574219 2.12773438 11.32398437 1.32421875 11.13671875 C-1.38991962 10.97706355 -2.70900967 11.60024161 -5 13 C-4.45939743 9.10766151 -3.37781856 7.07134898 -1 4 C-0.29485154 1.85266073 -0.29485154 1.85266073 0 0 Z " fill="#D8A199" transform="translate(71,87)"/>
<path d="M0 0 C0.33 0 0.66 0 1 0 C1 1.65 1 3.3 1 5 C2.98 5 4.96 5 7 5 C7.12375 5.969375 7.2475 6.93875 7.375 7.9375 C7.58125 8.948125 7.7875 9.95875 8 11 C8.66 11.33 9.32 11.66 10 12 C9.2884375 12.495 9.2884375 12.495 8.5625 13 C6.14208385 16.09813267 6.31801083 19.12026792 6 23 C5.67 23 5.34 23 5 23 C5 21.02 5 19.04 5 17 C4.236875 16.855625 3.47375 16.71125 2.6875 16.5625 C0 16 0 16 -3 15 C-2.69163768 12.87439563 -2.37818386 10.74952935 -2.0625 8.625 C-1.88847656 7.44164063 -1.71445313 6.25828125 -1.53515625 5.0390625 C-1 2 -1 2 0 0 Z " fill="#D1948A" transform="translate(82,68)"/>
<path d="M0 0 C2.89659753 0.32184417 5.31897331 0.61408488 7.875 2.0625 C9.73193849 5.26056073 9.17925295 8.35518997 9 12 C8.01 12 7.02 12 6 12 C6 11.34 6 10.68 6 10 C4.30230469 10.01740234 4.30230469 10.01740234 2.5703125 10.03515625 C1.08854331 10.04453454 -0.39322765 10.0536347 -1.875 10.0625 C-2.62136719 10.07087891 -3.36773437 10.07925781 -4.13671875 10.08789062 C-9.7734375 10.11328125 -9.7734375 10.11328125 -12 9 C-12 6.36 -12 3.72 -12 1 C-11.67 1 -11.34 1 -11 1 C-11 3.31 -11 5.62 -11 8 C-7.87498361 7.62705566 -4.93581453 7.15929788 -2 6 C-0.30834699 3.01716843 -0.30834699 3.01716843 0 0 Z " fill="#AC736B" transform="translate(100,82)"/>
<path d="M0 0 C0.33 1.65 0.66 3.3 1 5 C0.37955811 5.04487549 -0.24088379 5.08975098 -0.88012695 5.13598633 C-3.69218848 5.34735817 -6.50213659 5.57967798 -9.3125 5.8125 C-10.28896484 5.88275391 -11.26542969 5.95300781 -12.27148438 6.02539062 C-13.20927734 6.10595703 -14.14707031 6.18652344 -15.11328125 6.26953125 C-15.97735596 6.33760986 -16.84143066 6.40568848 -17.73168945 6.47583008 C-20.37660487 7.0870273 -21.21221094 8.02962822 -23 10 C-23.66 10 -24.32 10 -25 10 C-24.67 8.02 -24.34 6.04 -24 4 C-21.50276548 3.32114013 -19.00303859 2.65682573 -16.5 2 C-15.80390625 1.80921875 -15.1078125 1.6184375 -14.390625 1.421875 C-9.4587081 0.14322988 -5.09419909 -0.18357474 0 0 Z " fill="#2E2221" transform="translate(61,71)"/>
<path d="M0 0 C3.458176 -0.0868329 6.91607344 -0.14033282 10.375 -0.1875 C11.35984375 -0.21263672 12.3446875 -0.23777344 13.359375 -0.26367188 C14.77089844 -0.27817383 14.77089844 -0.27817383 16.2109375 -0.29296875 C17.08024902 -0.3086792 17.94956055 -0.32438965 18.84521484 -0.34057617 C19.55629395 -0.22818604 20.26737305 -0.1157959 21 0 C21.66 0.99 22.32 1.98 23 3 C20.96632781 5.03367219 17.10992497 4.72799834 14.3125 5.0625 C13.60416016 5.15337891 12.89582031 5.24425781 12.16601562 5.33789062 C8.08408075 5.83918087 4.12153944 6.0973592 0 6 C0 4.02 0 2.04 0 0 Z " fill="#5A4645" transform="translate(83,67)"/>
<path d="M0 0 C1.37478516 0.01740234 1.37478516 0.01740234 2.77734375 0.03515625 C3.69644531 0.04417969 4.61554687 0.05320312 5.5625 0.0625 C6.27277344 0.07410156 6.98304687 0.08570312 7.71484375 0.09765625 C7.38484375 1.08765625 7.05484375 2.07765625 6.71484375 3.09765625 C7.70484375 3.09765625 8.69484375 3.09765625 9.71484375 3.09765625 C9.38484375 4.41765625 9.05484375 5.73765625 8.71484375 7.09765625 C8.38484375 6.76765625 8.05484375 6.43765625 7.71484375 6.09765625 C5.61812687 5.80815141 3.51123169 5.59078403 1.40234375 5.41015625 C0.25121094 5.30316406 -0.89992188 5.19617188 -2.0859375 5.0859375 C-5.30124447 5.09771518 -6.5781216 5.53797403 -9.28515625 7.09765625 C-10.27515625 7.09765625 -11.26515625 7.09765625 -12.28515625 7.09765625 C-12.61515625 5.77765625 -12.94515625 4.45765625 -13.28515625 3.09765625 C-9.63051612 0.66122949 -7.58346658 1.01805791 -3.28515625 1.09765625 C-2.28515625 0.09765625 -2.28515625 0.09765625 0 0 Z " fill="#E9BFB8" transform="translate(53.28515625,64.90234375)"/>
<path d="M0 0 C1.8125 1.4375 1.8125 1.4375 3 3 C3 3.66 3 4.32 3 5 C-1.94816714 7.80396138 -6.61682285 6.77350507 -12 6 C-12 4.35 -12 2.7 -12 1 C-4.32 -1.56 -4.32 -1.56 0 0 Z " fill="#AD4F4F" transform="translate(80,113)"/>
<path d="M0 0 C-1.28959292 3.86877876 -3.51678244 6.01537604 -7 8 C-10.9128306 8.07985369 -12.63411175 7.24657687 -15.875 5.0625 C-16.57625 4.381875 -17.2775 3.70125 -18 3 C-18 2.34 -18 1.68 -18 1 C-15.56257869 0.83210874 -13.12507454 0.66563867 -10.6875 0.5 C-9.99720703 0.45230469 -9.30691406 0.40460938 -8.59570312 0.35546875 C-5.72337641 0.16120511 -2.87986212 0 0 0 Z " fill="#B27569" transform="translate(87,143)"/>
<path d="M0 0 C1.32 0.33 2.64 0.66 4 1 C3.01 1 2.02 1 1 1 C1 2.32 1 3.64 1 5 C2.65 5.33 4.3 5.66 6 6 C5.67 7.65 5.34 9.3 5 11 C4.34 11 3.68 11 3 11 C2.67 11.99 2.34 12.98 2 14 C0.4221875 14.2165625 0.4221875 14.2165625 -1.1875 14.4375 C-4.15460549 14.87526966 -7.06794366 15.37804866 -10 16 C-10.66 15.01 -11.32 14.02 -12 13 C-8.37 13 -4.74 13 -1 13 C-1 12.34 -1 11.68 -1 11 C-2.32 11 -3.64 11 -5 11 C-5 10.34 -5 9.68 -5 9 C-3.68 8.67 -2.36 8.34 -1 8 C-0.67 5.36 -0.34 2.72 0 0 Z " fill="#CE8D84" transform="translate(55,88)"/>
<path d="M0 0 C1.14726563 0.00515625 2.29453125 0.0103125 3.4765625 0.015625 C5.18972656 0.00789063 5.18972656 0.00789063 6.9375 0 C9.94254205 0.25227513 11.65349618 0.54377931 14.1015625 2.265625 C14.8515625 4.890625 14.8515625 4.890625 15.1015625 7.265625 C11.2952168 6.59391694 7.74949434 5.53815936 4.1015625 4.265625 C4.1015625 5.915625 4.1015625 7.565625 4.1015625 9.265625 C3.1115625 9.760625 3.1115625 9.760625 2.1015625 10.265625 C2.1015625 8.945625 2.1015625 7.625625 2.1015625 6.265625 C0.7815625 6.595625 -0.5384375 6.925625 -1.8984375 7.265625 C-1.5684375 5.945625 -1.2384375 4.625625 -0.8984375 3.265625 C1.7415625 2.935625 4.3815625 2.605625 7.1015625 2.265625 C6.48667969 2.265625 5.87179688 2.265625 5.23828125 2.265625 C1.859375 2.265625 -1.51953125 2.265625 -4.8984375 2.265625 C-2.8984375 0.265625 -2.8984375 0.265625 0 0 Z " fill="#513B37" transform="translate(95.8984375,77.734375)"/>
<path d="M0 0 C0.66 0 1.32 0 2 0 C2.88021369 6.71162938 3.11381955 13.23405981 3 20 C1.49440461 18.03617993 0.10868317 16.21736634 -1 14 C-1.66 14 -2.32 14 -3 14 C-3.33 14.99 -3.66 15.98 -4 17 C-4 14.03 -4 11.06 -4 8 C-3.34 8 -2.68 8 -2 8 C-1.7834375 6.576875 -1.7834375 6.576875 -1.5625 5.125 C-1 2 -1 2 0 0 Z " fill="#B19D99" transform="translate(7,105)"/>
<path d="M0 0 C0.99 0.99 1.98 1.98 3 3 C-1.95 3.66 -6.9 4.32 -12 5 C-12.33 5.99 -12.66 6.98 -13 8 C-13.99 8 -14.98 8 -16 8 C-16 6.35 -16 4.7 -16 3 C-10.91753557 -0.20997753 -5.8934114 -1.03464365 0 0 Z " fill="#281917" transform="translate(55,84)"/>
<path d="M0 0 C5.99750977 0.35985059 8.61283665 1.99432911 13 6 C13.94875 6.53625 14.8975 7.0725 15.875 7.625 C16.57625 8.07875 17.2775 8.5325 18 9 C18 9.99 18 10.98 18 12 C11.86799698 10.5476835 6.78090071 7.00613024 2 3 C2 2.34 2 1.68 2 1 C1.34 0.67 0.68 0.34 0 0 Z " fill="#88716F" transform="translate(105,18)"/>
<path d="M0 0 C-1.28965176 1.37562854 -2.62689293 2.70766393 -4 4 C-4.66 4 -5.32 4 -6 4 C-6.0825 4.5775 -6.165 5.155 -6.25 5.75 C-7.21797787 8.6539336 -8.68694284 10.03740604 -11 12 C-11.66 12 -12.32 12 -13 12 C-13.5156038 6.84396201 -13.5156038 6.84396201 -13 4 C-8.89785368 -0.00209397 -5.59705939 -0.44776475 0 0 Z " fill="#E3A498" transform="translate(49,78)"/>
<path d="M0 0 C0.99 0.33 1.98 0.66 3 1 C3.33 5.29 3.66 9.58 4 14 C7.63 14.33 11.26 14.66 15 15 C15 15.66 15 16.32 15 17 C13.60554251 17.19747219 12.20931848 17.38248587 10.8125 17.5625 C10.03519531 17.66691406 9.25789063 17.77132812 8.45703125 17.87890625 C6 18 6 18 1 17 C0.67 11.39 0.34 5.78 0 0 Z " fill="#3C2124" transform="translate(62,42)"/>
<path d="M0 0 C0.99 0 1.98 0 3 0 C3.91657981 5.38490641 4.11138159 10.54230189 4 16 C4.99 16 5.98 16 7 16 C7 13.69 7 11.38 7 9 C7.33 9 7.66 9 8 9 C8 11.64 8 14.28 8 17 C5.04335481 18.4783226 2.25770263 18.06032783 -1 18 C0.32 17.67 1.64 17.34 3 17 C2.34 16.01 1.68 15.02 1 14 C0.70547416 11.61322924 0.5071783 9.21373906 0.375 6.8125 C0.30023438 5.54019531 0.22546875 4.26789062 0.1484375 2.95703125 C0.09945312 1.98121094 0.05046875 1.00539062 0 0 Z " fill="#634445" transform="translate(74,42)"/>
<path d="M0 0 C0.99 0 1.98 0 3 0 C3 4.29 3 8.58 3 13 C2.34 13 1.68 13 1 13 C0.67 13.99 0.34 14.98 0 16 C0 12.7 0 9.4 0 6 C-0.969375 5.71125 -1.93875 5.4225 -2.9375 5.125 C-6 4 -6 4 -7 2 C-4.69 2.33 -2.38 2.66 0 3 C0 2.01 0 1.02 0 0 Z " fill="#ECC6C0" transform="translate(112,75)"/>
<path d="M0 0 C0.99 0 1.98 0 3 0 C3.33 1.32 3.66 2.64 4 4 C4.8971875 3.6596875 4.8971875 3.6596875 5.8125 3.3125 C6.8953125 3.1578125 6.8953125 3.1578125 8 3 C9.5625 4.375 9.5625 4.375 11 6 C11.99 6.33 12.98 6.66 14 7 C13.67 7.99 13.34 8.98 13 10 C11.35 9.67 9.7 9.34 8 9 C8 8.01 8 7.02 8 6 C7.34 6 6.68 6 6 6 C6 7.32 6 8.64 6 10 C5.01 10 4.02 10 3 10 C2.01 6.7 1.02 3.4 0 0 Z " fill="#5B3B3C" transform="translate(92,45)"/>
<path d="M0 0 C0.99 0 1.98 0 3 0 C3.25 2.3125 3.25 2.3125 3 5 C2.360625 5.4125 1.72125 5.825 1.0625 6.25 C-1.51856532 8.43999482 -1.35035578 9.33963332 -1.625 12.625 C-1.65851562 13.42164062 -1.69203125 14.21828125 -1.7265625 15.0390625 C-1.86191406 16.00972656 -1.86191406 16.00972656 -2 17 C-2.66 17.33 -3.32 17.66 -4 18 C-5.28729799 12.26567261 -4.65308683 9.20791119 -2 4 C-1.608125 3.195625 -1.21625 2.39125 -0.8125 1.5625 C-0.544375 1.046875 -0.27625 0.53125 0 0 Z " fill="#46292C" transform="translate(35,64)"/>
<path d="M0 0 C0.66 0 1.32 0 2 0 C2.375 2.1875 2.375 2.1875 2 5 C-0.83600473 8.44919494 -2.37582054 9.82176357 -6.84765625 10.3125 C-9.58294124 10.3125 -12.27401562 10.21827277 -15 10 C-11.42874001 8.15729507 -7.75813921 6.67182248 -4.0234375 5.1953125 C-1.62293748 3.7772565 -0.99622289 2.56018571 0 0 Z " fill="#DBA197" transform="translate(95,145)"/>
<path d="M0 0 C3.3 0.66 6.6 1.32 10 2 C10 2.33 10 2.66 10 3 C7.69 3 5.38 3 3 3 C3 3.66 3 4.32 3 5 C6.3 5 9.6 5 13 5 C12.67 5.66 12.34 6.32 12 7 C10.41753293 7.08153933 8.83383727 7.13943557 7.25 7.1875 C5.92742187 7.23970703 5.92742187 7.23970703 4.578125 7.29296875 C1.55328417 6.94923684 0.24416398 5.99772541 -2 4 C-1.34 2.68 -0.68 1.36 0 0 Z " fill="#B56A69" transform="translate(66,118)"/>
<path d="M0 0 C0.66 0 1.32 0 2 0 C1.67 3.3 1.34 6.6 1 10 C1.66 10 2.32 10 3 10 C3 7.03 3 4.06 3 1 C3.33 1 3.66 1 4 1 C4 5.29 4 9.58 4 14 C3.01 14.33 2.02 14.66 1 15 C0.67 13.68 0.34 12.36 0 11 C-0.99 11.495 -0.99 11.495 -2 12 C-2.05395478 10.37536158 -2.09277195 8.75021459 -2.125 7.125 C-2.14820312 6.22007813 -2.17140625 5.31515625 -2.1953125 4.3828125 C-2 2 -2 2 0 0 Z " fill="#5E3B3D" transform="translate(32,108)"/>
<path d="M0 0 C5.28 0 10.56 0 16 0 C14.02 0.99 14.02 0.99 12 2 C11.32839844 2.35320312 10.65679687 2.70640625 9.96484375 3.0703125 C9.29582031 3.41835937 8.62679687 3.76640625 7.9375 4.125 C7.26589844 4.47820312 6.59429687 4.83140625 5.90234375 5.1953125 C4 6 4 6 1 6 C0.67 4.02 0.34 2.04 0 0 Z " fill="#EEC4BD" transform="translate(89,73)"/>
<path d="M0 0 C0.66 0.33 1.32 0.66 2 1 C0.36587557 2.70840281 -0.86906094 3.93453047 -3 5 C-2.34 5.33 -1.68 5.66 -1 6 C-1.969375 6.45375 -2.93875 6.9075 -3.9375 7.375 C-7.07079582 8.65786221 -7.07079582 8.65786221 -8 11 C-8.99 10.67 -9.98 10.34 -11 10 C-13.19038423 11.37168238 -13.19038423 11.37168238 -15 13 C-12.44388748 6.72590563 -7.59512719 3.51992988 -1.76953125 0.6015625 C-1.18558594 0.40304688 -0.60164063 0.20453125 0 0 Z " fill="#5F4445" transform="translate(50,17)"/>
<path d="M0 0 C0.33 0 0.66 0 1 0 C1.25224894 7.44134376 0.69002099 14.72873687 -1 22 C-1.66 22.66 -2.32 23.32 -3 24 C-3 16.41 -3 8.82 -3 1 C-2.67 1 -2.34 1 -2 1 C-1.67 2.65 -1.34 4.3 -1 6 C-0.67 4.02 -0.34 2.04 0 0 Z " fill="#CCA5A0" transform="translate(115,98)"/>
<path d="M0 0 C0.66 0.33 1.32 0.66 2 1 C-4.89655172 12.63218391 -4.89655172 12.63218391 -8 17 C-8.33 17 -8.66 17 -9 17 C-9.34131483 13.2997138 -9.28588444 11.45650339 -7.28515625 8.26171875 C-6.55167969 7.41222656 -5.81820312 6.56273437 -5.0625 5.6875 C-4.33160156 4.82511719 -3.60070313 3.96273438 -2.84765625 3.07421875 C-1.91856247 2.03119804 -0.98770123 0.98770123 0 0 Z " fill="#38191C" transform="translate(39,26)"/>
<path d="M0 0 C0.99 0 1.98 0 3 0 C3.144375 1.11375 3.28875 2.2275 3.4375 3.375 C3.78372035 6.82142047 3.78372035 6.82142047 5 9 C4.34 9 3.68 9 3 9 C3 12.3 3 15.6 3 19 C2.34 18.67 1.68 18.34 1 18 C-0.09163808 11.99599056 -0.11227478 6.08778799 0 0 Z " fill="#E2A69C" transform="translate(39,94)"/>
<path d="M0 0 C2.31 0.33 4.62 0.66 7 1 C7 1.33 7 1.66 7 2 C5.02 2 3.04 2 1 2 C1.020625 2.804375 1.04125 3.60875 1.0625 4.4375 C1 7 1 7 0 8 C-3.33037447 8.24468057 -6.65973714 8.38427005 -9.99609375 8.5234375 C-10.98738281 8.68070313 -11.97867188 8.83796875 -13 9 C-13.99 10.485 -13.99 10.485 -15 12 C-17.125 12.6875 -17.125 12.6875 -19 13 C-17.6704934 9.01148019 -16.67930728 8.09215512 -13 6 C-8.97793179 5.65959058 -5.02637728 5.76882044 -1 6 C-0.67 4.02 -0.34 2.04 0 0 Z " fill="#AC9692" transform="translate(140,107)"/>
<path d="M0 0 C0.66 0.33 1.32 0.66 2 1 C2.4140625 3.06640625 2.4140625 3.06640625 2.625 5.5625 C2.69976562 6.38878906 2.77453125 7.21507813 2.8515625 8.06640625 C2.90054688 8.70449219 2.94953125 9.34257813 3 10 C2.67 8.68 2.34 7.36 2 6 C1.34 6 0.68 6 0 6 C0 6.66 0 7.32 0 8 C-0.99 8.495 -0.99 8.495 -2 9 C-2.46523063 10.89533342 -2.46523063 10.89533342 -2.625 13.0625 C-2.74875 14.361875 -2.8725 15.66125 -3 17 C-3.66 17 -4.32 17 -5 17 C-5 13.37 -5 9.74 -5 6 C-4.01 6 -3.02 6 -2 6 C-1.34 4.02 -0.68 2.04 0 0 Z " fill="#5E3B3D" transform="translate(34,85)"/>
<path d="M0 0 C0.99 0 1.98 0 3 0 C4.125 6.625 4.125 6.625 3 10 C2.566875 9.360625 2.13375 8.72125 1.6875 8.0625 C0.08760823 5.73253997 0.08760823 5.73253997 -3 5 C-2.67 9.62 -2.34 14.24 -2 19 C-2.66 18.67 -3.32 18.34 -4 18 C-4 13.38 -4 8.76 -4 4 C-2.68 4 -1.36 4 0 4 C0 2.68 0 1.36 0 0 Z " fill="#D4ACA5" transform="translate(64,140)"/>
<path d="M0 0 C6.27 0 12.54 0 19 0 C19.33 0.99 19.66 1.98 20 3 C13.07 2.67 6.14 2.34 -1 2 C-0.67 1.34 -0.34 0.68 0 0 Z " fill="#E9C1BA" transform="translate(89,60)"/>
<path d="M0 0 C3 1 3 1 4.203125 3.14453125 C4.54859375 4.02496094 4.8940625 4.90539063 5.25 5.8125 C5.60578125 6.68519531 5.9615625 7.55789062 6.328125 8.45703125 C7.03604136 11.13641236 6.9337741 12.43212123 6 15 C5.01 12.69 4.02 10.38 3 8 C2.67 10.64 2.34 13.28 2 16 C1.67 16 1.34 16 1 16 C0.67 10.72 0.34 5.44 0 0 Z " fill="#C29A93" transform="translate(81,43)"/>
<path d="M0 0 C0.33 0 0.66 0 1 0 C1.0246985 3.95099928 1.04285923 7.90196874 1.05493164 11.85302734 C1.06244036 13.85906551 1.0751447 15.86508202 1.08789062 17.87109375 C1.09111328 19.12792969 1.09433594 20.38476562 1.09765625 21.6796875 C1.10289307 22.84226074 1.10812988 24.00483398 1.11352539 25.20263672 C1 28 1 28 0 30 C-0.99 30 -1.98 30 -3 30 C-2.68289062 28.74316406 -2.36578125 27.48632812 -2.0390625 26.19140625 C-0.83674773 20.7809898 -0.55957725 15.46328128 -0.375 9.9375 C-0.33632812 8.97650391 -0.29765625 8.01550781 -0.2578125 7.02539062 C-0.16461374 4.68377186 -0.07880815 2.34213963 0 0 Z " fill="#7C5A5A" transform="translate(115,67)"/>
<path d="M0 0 C0.66 0 1.32 0 2 0 C2.12375 0.969375 2.2475 1.93875 2.375 2.9375 C2.58125 3.948125 2.7875 4.95875 3 6 C3.66 6.33 4.32 6.66 5 7 C4.2884375 7.495 4.2884375 7.495 3.5625 8 C1.14208385 11.09813267 1.31801083 14.12026792 1 18 C0.67 18 0.34 18 0 18 C0 16.02 0 14.04 0 12 C-0.66 12 -1.32 12 -2 12 C-1.46930939 8.17902761 -0.50298434 5.93828597 2 3 C0.68 2.67 -0.64 2.34 -2 2 C-1.34 1.34 -0.68 0.68 0 0 Z " fill="#DCA197" transform="translate(87,73)"/>
<path d="M0 0 C0.66 0 1.32 0 2 0 C2 4.62 2 9.24 2 14 C1.34 14 0.68 14 0 14 C-0.33 14.99 -0.66 15.98 -1 17 C-1.02684679 14.35409986 -1.04676357 11.70846904 -1.0625 9.0625 C-1.07087891 8.30775391 -1.07925781 7.55300781 -1.08789062 6.77539062 C-1.09652441 4.85005687 -1.05224333 2.92464419 -1 1 C-0.67 0.67 -0.34 0.34 0 0 Z " fill="#CEA9A1" transform="translate(60,45)"/>
<path d="M0 0 C4.20896473 1.40298824 4.90700011 3.7774026 6.92578125 7.56640625 C8.34880372 10.79019897 8.77646499 13.49795158 9 17 C6.20546094 14.51596528 4.59290588 11.77067154 2.8125 8.5 C2.28269531 7.5409375 1.75289062 6.581875 1.20703125 5.59375 C0 3 0 3 0 0 Z " fill="#3F2124" transform="translate(133,53)"/>
<path d="M0 0 C1.32 0.33 2.64 0.66 4 1 C3.01 1 2.02 1 1 1 C1 2.32 1 3.64 1 5 C2.65 5.33 4.3 5.66 6 6 C5.67 7.65 5.34 9.3 5 11 C4.34 11 3.68 11 3 11 C2.67 11.99 2.34 12.98 2 14 C1.34 14 0.68 14 0 14 C0 13.34 0 12.68 0 12 C0.66 12 1.32 12 2 12 C1.67 11.319375 1.34 10.63875 1 9.9375 C-0.17307315 6.49159762 -0.14180493 3.61602578 0 0 Z " fill="#CC9A93" transform="translate(55,88)"/>
<path d="M0 0 C0 3.96 0 7.92 0 12 C-3.3 12.33 -6.6 12.66 -10 13 C-9.67 12.34 -9.34 11.68 -9 11 C-7.35 11 -5.7 11 -4 11 C-3.95101562 10.28972656 -3.90203125 9.57945313 -3.8515625 8.84765625 C-3.73941406 7.46900391 -3.73941406 7.46900391 -3.625 6.0625 C-3.55539063 5.14597656 -3.48578125 4.22945312 -3.4140625 3.28515625 C-3.27742188 2.53105469 -3.14078125 1.77695312 -3 1 C-1 0 -1 0 0 0 Z " fill="#604243" transform="translate(59,50)"/>
<path d="M0 0 C0 0.66 0 1.32 0 2 C-6.11980533 3.40454548 -11.71739294 4.23268915 -18 4 C-17.01 3.67 -16.02 3.34 -15 3 C-15 2.34 -15 1.68 -15 1 C-10.03926578 -0.32286246 -5.08888488 -0.08893197 0 0 Z " fill="#593134" transform="translate(47,126)"/>
<path d="M0 0 C0.33 0.99 0.66 1.98 1 3 C0.67 3.66 0.34 4.32 0 5 C-0.38923527 7.36950521 -0.7380578 9.7457572 -1.0625 12.125 C-1.23910156 13.40632813 -1.41570313 14.68765625 -1.59765625 16.0078125 C-1.73042969 16.99523437 -1.86320313 17.98265625 -2 19 C-2.33 19 -2.66 19 -3 19 C-3.27565727 16.39623726 -3.52127265 13.79544032 -3.75 11.1875 C-3.83121094 10.44951172 -3.91242187 9.71152344 -3.99609375 8.95117188 C-4.171875 6.79296875 -4.171875 6.79296875 -4 3 C-2.015625 0.98828125 -2.015625 0.98828125 0 0 Z " fill="#3D1F22" transform="translate(13,101)"/>
<path d="M0 0 C0 0.99 0 1.98 0 3 C-0.33 3.33 -0.66 3.66 -1 4 C-0.979375 5.19625 -0.95875 6.3925 -0.9375 7.625 C-0.86990762 11.78568675 -1.68834508 15.06503525 -3 19 C-3.66 18.67 -4.32 18.34 -5 18 C-5.33249053 11.79351012 -4.54922986 7.68674354 -2 2 C-1.34 1.34 -0.68 0.68 0 0 Z " fill="#5A3F40" transform="translate(32,33)"/>
<path d="M0 0 C0.99 0 1.98 0 3 0 C3 3.63 3 7.26 3 11 C2.34 11 1.68 11 1 11 C0.67 9.35 0.34 7.7 0 6 C-1.32 6.99 -2.64 7.98 -4 9 C-4.66 8.67 -5.32 8.34 -6 8 C-4.73046875 6.50260417 -3.4609375 5.00520833 -2.19140625 3.5078125 C-0.9121848 1.99405921 -0.9121848 1.99405921 0 0 Z " fill="#6D5252" transform="translate(99,145)"/>
<path d="M0 0 C-0.33 0.66 -0.66 1.32 -1 2 C-0.01 2.33 0.98 2.66 2 3 C0.9275 3.28875 -0.145 3.5775 -1.25 3.875 C-4.09400364 4.72820109 -6.43508983 5.5636503 -9 7 C-8.67 5.02 -8.34 3.04 -8 1 C-2.25 -1.125 -2.25 -1.125 0 0 Z " fill="#7A5552" transform="translate(45,74)"/>
<path d="M0 0 C0.66 0 1.32 0 2 0 C2.33 2.97 2.66 5.94 3 9 C2.67 8.34 2.34 7.68 2 7 C1.34 7 0.68 7 0 7 C0 7.99 0 8.98 0 10 C-0.66 10 -1.32 10 -2 10 C-2.33 10.66 -2.66 11.32 -3 12 C-2.49202991 7.6822542 -1.80317221 3.96697886 0 0 Z " fill="#826C6A" transform="translate(7,105)"/>
<path d="M0 0 C0.33 0 0.66 0 1 0 C1.36334661 7.38804781 1.36334661 7.38804781 -0.1875 10 C-2.55995679 11.30894168 -4.3335118 11.21620175 -7 11 C-7.33 10.34 -7.66 9.68 -8 9 C-7.67 8.67 -7.34 8.34 -7 8 C-7.33 7.34 -7.66 6.68 -8 6 C-5.03 6.495 -5.03 6.495 -2 7 C-2 6.34 -2 5.68 -2 5 C-1.34 5 -0.68 5 0 5 C0 3.35 0 1.7 0 0 Z " fill="#C4928A" transform="translate(67,80)"/>
<path d="M0 0 C3.43970626 1.14656875 3.8782229 1.84518278 5.75 4.8125 C6.19859375 5.49957031 6.6471875 6.18664062 7.109375 6.89453125 C8.16892656 9.39934831 7.92399724 10.49281235 7 13 C1.26598465 7.56777494 1.26598465 7.56777494 0 4 C0 2.68 0 1.36 0 0 Z " fill="#523537" transform="translate(148,80)"/>
<path d="M0 0 C3.67230705 3.07999946 4.56802365 5.2482602 5 10 C4.01 9.67 3.02 9.34 2 9 C1.75507812 8.33484375 1.51015625 7.6696875 1.2578125 6.984375 C0.84273437 6.32953125 0.42765625 5.6746875 0 5 C-3.33975372 4.29211565 -3.33975372 4.29211565 -7.125 4.25 C-9.04699219 4.16492188 -9.04699219 4.16492188 -11.0078125 4.078125 C-11.99523438 4.05234375 -12.98265625 4.0265625 -14 4 C-14 3.67 -14 3.34 -14 3 C-9.38 2.67 -4.76 2.34 0 2 C0 1.34 0 0.68 0 0 Z " fill="#B57A71" transform="translate(61,73)"/>
<path d="M0 0 C1.60294922 0.15275391 1.60294922 0.15275391 3.23828125 0.30859375 C4.45064453 0.43427734 4.45064453 0.43427734 5.6875 0.5625 C1.9507157 3.05368953 -0.05701819 2.7690226 -4.5 2.6875 C-5.77230469 2.66945313 -7.04460937 2.65140625 -8.35546875 2.6328125 C-9.81919922 2.59800781 -9.81919922 2.59800781 -11.3125 2.5625 C-11.3125 1.9025 -11.3125 1.2425 -11.3125 0.5625 C-7.36602382 -0.42594951 -4.03857036 -0.39941905 0 0 Z " fill="#160F0F" transform="translate(95.3125,68.4375)"/>
<path d="M0 0 C-2 3 -2 3 -4.2421875 3.80078125 C-5.11101563 3.96964844 -5.97984375 4.13851562 -6.875 4.3125 C-7.73867188 4.49425781 -8.60234375 4.67601563 -9.4921875 4.86328125 C-12.31224438 5.01702267 -13.63091158 4.47103862 -16 3 C-10.28264895 0.54970669 -6.20970773 -0.33266291 0 0 Z " fill="#D7AFA9" transform="translate(59,62)"/>
<path d="M0 0 C0.33 0 0.66 0 1 0 C1.02698189 1.62490954 1.04638757 3.24994633 1.0625 4.875 C1.07410156 5.77992187 1.08570313 6.68484375 1.09765625 7.6171875 C1 10 1 10 0 12 C-2.06640625 12.6328125 -2.06640625 12.6328125 -4.5625 13.125 C-5.38878906 13.29257812 -6.21507812 13.46015625 -7.06640625 13.6328125 C-7.70449219 13.75398438 -8.34257813 13.87515625 -9 14 C-9 13.01 -9 12.02 -9 11 C-6.03 10.34 -3.06 9.68 0 9 C0 6.03 0 3.06 0 0 Z " fill="#3E2225" transform="translate(55,49)"/>
<path d="M0 0 C6.93 0.495 6.93 0.495 14 1 C14 1.33 14 1.66 14 2 C4.1 3.485 4.1 3.485 -6 5 C-6 4.34 -6 3.68 -6 3 C-4.02 2.34 -2.04 1.68 0 1 C0 0.67 0 0.34 0 0 Z " fill="#C2A19C" transform="translate(47,69)"/>
<path d="M0 0 C1.32 0 2.64 0 4 0 C3.34 3.96 2.68 7.92 2 12 C1.34 10.68 0.68 9.36 0 8 C-2.17208588 7.08839907 -2.17208588 7.08839907 -4.625 6.75 C-5.44226563 6.60046875 -6.25953125 6.4509375 -7.1015625 6.296875 C-7.72804688 6.19890625 -8.35453125 6.1009375 -9 6 C-9 5.67 -9 5.34 -9 5 C-5.7 5.33 -2.4 5.66 1 6 C0.67 4.02 0.34 2.04 0 0 Z " fill="#603E3F" transform="translate(113,54)"/>
<path d="M0 0 C0.33 0 0.66 0 1 0 C2.38529821 5.45461169 3.2396943 10.36718401 3 16 C2.01 16 1.02 16 0 16 C0 10.72 0 5.44 0 0 Z " fill="#3A1F23" transform="translate(78,42)"/>
<path d="M0 0 C0.33 0 0.66 0 1 0 C1 3.63 1 7.26 1 11 C-0.65 11.66 -2.3 12.32 -4 13 C-3.29666462 10.02277453 -2.41751463 7.14743457 -1.4375 4.25 C-1.16808594 3.45078125 -0.89867188 2.6515625 -0.62109375 1.828125 C-0.41613281 1.22484375 -0.21117188 0.6215625 0 0 Z " fill="#674143" transform="translate(115,113)"/>
<path d="M0 0 C0.99 0 1.98 0 3 0 C3.08090971 1.62418745 3.13914995 3.24951745 3.1875 4.875 C3.22230469 5.77992187 3.25710937 6.68484375 3.29296875 7.6171875 C3.19628906 8.40351562 3.09960938 9.18984375 3 10 C2.01 10.66 1.02 11.32 0 12 C0 8.04 0 4.08 0 0 Z " fill="#412527" transform="translate(22,63)"/>
<path d="M0 0 C2.475 0.495 2.475 0.495 5 1 C4.67 2.65 4.34 4.3 4 6 C2.68 6.33 1.36 6.66 0 7 C0 4.69 0 2.38 0 0 Z " fill="#D4B1AC" transform="translate(100,82)"/>
<path d="M0 0 C0 0.66 0 1.32 0 2 C-0.55558594 1.83628906 -1.11117187 1.67257813 -1.68359375 1.50390625 C-4.21725309 0.95273921 -6.47226924 0.9023385 -9.0625 0.9375 C-10.34833984 0.95103516 -10.34833984 0.95103516 -11.66015625 0.96484375 C-12.81837891 0.98224609 -12.81837891 0.98224609 -14 1 C-14.99 1 -15.98 1 -17 1 C-12.65802136 -3.34197864 -4.90608179 -3.27072119 0 0 Z " fill="#BC776C" transform="translate(59,84)"/>
<path d="M0 0 C2.64 0 5.28 0 8 0 C8 1.65 8 3.3 8 5 C3.545 4.01 3.545 4.01 -1 3 C-0.67 2.01 -0.34 1.02 0 0 Z " fill="#E9BFB8" transform="translate(105,65)"/>
<path d="M0 0 C1.32 0.33 2.64 0.66 4 1 C3.67 1.66 3.34 2.32 3 3 C2.7724985 4.87056791 2.59037189 6.74685958 2.4375 8.625 C2.35371094 9.62789062 2.26992188 10.63078125 2.18359375 11.6640625 C2.12300781 12.43492187 2.06242187 13.20578125 2 14 C0 12 0 12 -0.1953125 9.1796875 C-0.17210937 8.08914062 -0.14890625 6.99859375 -0.125 5.875 C-0.10695312 4.77929688 -0.08890625 3.68359375 -0.0703125 2.5546875 C-0.04710937 1.71164063 -0.02390625 0.86859375 0 0 Z " fill="#725A59" transform="translate(61,145)"/>
<path d="M0 0 C0.33 0 0.66 0 1 0 C1 2.64 1 5.28 1 8 C0.34 7.67 -0.32 7.34 -1 7 C-0.67 6.34 -0.34 5.68 0 5 C-0.5775 5.515625 -1.155 6.03125 -1.75 6.5625 C-4 8 -4 8 -6.25 7.6875 C-6.8275 7.460625 -7.405 7.23375 -8 7 C-2.25 2 -2.25 2 0 2 C0 1.34 0 0.68 0 0 Z " fill="#391D21" transform="translate(99,149)"/>
<path d="M0 0 C-0.598125 0.28875 -1.19625 0.5775 -1.8125 0.875 C-4.19327792 2.04742026 -4.19327792 2.04742026 -7 4 C-10 3 -10 3 -13 1 C-11.44616792 -0.55383208 -9.77276704 -0.38172542 -7.625 -0.625 C-6.83351563 -0.72039062 -6.04203125 -0.81578125 -5.2265625 -0.9140625 C-3 -1 -3 -1 0 0 Z " fill="#E1ABA2" transform="translate(111,97)"/>
<path d="M0 0 C2 1.375 2 1.375 4 4 C4.35791096 7.3580469 4.23115823 10.63536357 4 14 C3.01 13.67 2.02 13.34 1 13 C1.020625 11.96875 1.04125 10.9375 1.0625 9.875 C1.00723339 6.44847031 0.65449285 3.35427586 0 0 Z " fill="#381A1D" transform="translate(152,89)"/>
<path d="M0 0 C1.49080078 0.02707031 1.49080078 0.02707031 3.01171875 0.0546875 C3.77097656 0.07789062 4.53023437 0.10109375 5.3125 0.125 C2.90675724 2.53074276 1.67685997 2.58196282 -1.625 3.125 C-5.10849497 3.69959711 -6.67345726 4.11563817 -9.6875 6.125 C-9.375 4.25 -9.375 4.25 -8.6875 2.125 C-5.26655758 -0.15562828 -4.00562778 -0.09425007 0 0 Z " fill="#1D1110" transform="translate(99.6875,78.875)"/>
<path d="M0 0 C2.31 0 4.62 0 7 0 C6.38125 0.556875 5.7625 1.11375 5.125 1.6875 C2.93893621 4.06645178 2.01214301 5.96357096 1 9 C0.67 9 0.34 9 0 9 C0 6.03 0 3.06 0 0 Z " fill="#412528" transform="translate(82,157)"/>
<path d="M0 0 C0.99 0 1.98 0 3 0 C3 2.64 3 5.28 3 8 C1.35 8 -0.3 8 -2 8 C-2 7.34 -2 6.68 -2 6 C-1.34 6 -0.68 6 0 6 C0 4.02 0 2.04 0 0 Z " fill="#3F2124" transform="translate(137,105)"/>
<path d="M0 0 C0.66 0.33 1.32 0.66 2 1 C2 4.63 2 8.26 2 12 C1.01 11.34 0.02 10.68 -1 10 C-1.328125 7.87109375 -1.328125 7.87109375 -1.25 5.4375 C-1.23453125 4.63183594 -1.2190625 3.82617188 -1.203125 2.99609375 C-1 1 -1 1 0 0 Z " fill="#D6978C" transform="translate(109,85)"/>
<path d="M0 0 C3.96 0 7.92 0 12 0 C11.67 1.32 11.34 2.64 11 4 C10.67 3.67 10.34 3.34 10 3 C8.15108054 2.76636119 6.29511969 2.58696365 4.4375 2.4375 C3.42558594 2.35371094 2.41367187 2.26992187 1.37109375 2.18359375 C0.19740234 2.09271484 0.19740234 2.09271484 -1 2 C-0.67 1.34 -0.34 0.68 0 0 Z " fill="#F2CBC5" transform="translate(51,68)"/>
<path d="M0 0 C0.99 0.33 1.98 0.66 3 1 C3 4.96 3 8.92 3 13 C2.01 13.495 2.01 13.495 1 14 C0.67 9.38 0.34 4.76 0 0 Z " fill="#351B1F" transform="translate(62,42)"/>
<path d="M0 0 C0.99 0.33 1.98 0.66 3 1 C3 3.64 3 6.28 3 9 C3.66 9 4.32 9 5 9 C5 9.66 5 10.32 5 11 C3.68 11 2.36 11 1 11 C-0.28317892 7.15046324 -0.06643637 4.05261865 0 0 Z " fill="#432629" transform="translate(9,114)"/>
<path d="M0 0 C0.33 0 0.66 0 1 0 C1.08333357 4.8333472 0.95261487 9.23692563 0 14 C-0.99 13.67 -1.98 13.34 -3 13 C-2.69240822 11.02006459 -2.3787932 9.04106401 -2.0625 7.0625 C-1.88847656 5.96035156 -1.71445313 4.85820313 -1.53515625 3.72265625 C-1 1 -1 1 0 0 Z " fill="#EEC4BD" transform="translate(112,108)"/>
<path d="M0 0 C1.98 0.66 3.96 1.32 6 2 C6 2.66 6 3.32 6 4 C4.03852126 5.38938077 2.03833424 6.7260411 0 8 C0 5.36 0 2.72 0 0 Z " fill="#664142" transform="translate(123,109)"/>
<path d="M0 0 C2.64 0 5.28 0 8 0 C7.01 0.33 6.02 0.66 5 1 C5 2.65 5 4.3 5 6 C4.01 6.495 4.01 6.495 3 7 C3 5.68 3 4.36 3 3 C1.68 3.33 0.36 3.66 -1 4 C-0.67 2.68 -0.34 1.36 0 0 Z " fill="#5C3D3E" transform="translate(95,81)"/>
<path d="M0 0 C3 3 3 3 3.29296875 5.48046875 C3.25816406 6.37378906 3.22335938 7.26710938 3.1875 8.1875 C3.16042969 9.08855469 3.13335937 9.98960938 3.10546875 10.91796875 C3.07066406 11.60503906 3.03585938 12.29210937 3 13 C2.01 13.495 2.01 13.495 1 14 C0.67 9.38 0.34 4.76 0 0 Z " fill="#381C20" transform="translate(115,62)"/>
<path d="M0 0 C-0.99 0.495 -0.99 0.495 -2 1 C-2 1.66 -2 2.32 -2 3 C-5.63 3 -9.26 3 -13 3 C-13 2.34 -13 1.68 -13 1 C-8.62426048 0.40667939 -4.42471556 -0.13827236 0 0 Z " fill="#3B1C20" transform="translate(79,15)"/>
<path d="M0 0 C3.3 0.33 6.6 0.66 10 1 C10 1.66 10 2.32 10 3 C5.545 3.495 5.545 3.495 1 4 C0.67 2.68 0.34 1.36 0 0 Z " fill="#C47A6F" transform="translate(44,98)"/>
<path d="M0 0 C0.33 1.32 0.66 2.64 1 4 C-5.0546875 4.9765625 -5.0546875 4.9765625 -7 5 C-7.66 4.34 -8.32 3.68 -9 3 C-7.68 3 -6.36 3 -5 3 C-5 2.34 -5 1.68 -5 1 C-2 0 -2 0 0 0 Z " fill="#3C2124" transform="translate(104,54)"/>
<path d="M0 0 C4.03174806 0.27489191 5.56894631 0.53491576 8.375 3.5625 C8.91125 4.366875 9.4475 5.17125 10 6 C6.33118845 5.29445932 3.29549466 3.72264494 0 2 C0 1.34 0 0.68 0 0 Z " fill="#3F2124" transform="translate(94,14)"/>
<path d="M0 0 C0 0.33 0 0.66 0 1 C-3.63 1.33 -7.26 1.66 -11 2 C-11 1.67 -11 1.34 -11 1 C-13.97 1 -16.94 1 -20 1 C-14.21634458 -2.85577028 -6.61018848 -0.96148196 0 0 Z " fill="#634949" transform="translate(74,15)"/>
<path d="M0 0 C0.66 1.32 1.32 2.64 2 4 C2.66 4 3.32 4 4 4 C4.33 3.01 4.66 2.02 5 1 C5.33 3.31 5.66 5.62 6 8 C4.02 8 2.04 8 0 8 C0 5.36 0 2.72 0 0 Z " fill="#D8C7C0" transform="translate(2,115)"/>
<path d="M0 0 C0.66 0 1.32 0 2 0 C2 3.3 2 6.6 2 10 C1.01 10.495 1.01 10.495 0 11 C-1.28571429 3.57142857 -1.28571429 3.57142857 0 0 Z " fill="#3D2227" transform="translate(31,71)"/>
<path d="M0 0 C0.66 0.33 1.32 0.66 2 1 C-1.44615385 7.76923077 -1.44615385 7.76923077 -4.25 8.9375 C-4.8275 8.958125 -5.405 8.97875 -6 9 C-4.68775452 5.06326356 -3.08089673 2.77280706 0 0 Z " fill="#3E1F23" transform="translate(39,26)"/>
<path d="M0 0 C0.66 0 1.32 0 2 0 C2.33 0.99 2.66 1.98 3 3 C3.99 3.33 4.98 3.66 6 4 C6 4.99 6 5.98 6 7 C4.35 7 2.7 7 1 7 C0.67 4.69 0.34 2.38 0 0 Z " fill="#381B1E" transform="translate(14,126)"/>
<path d="M0 0 C0.5625 1.9375 0.5625 1.9375 1 4 C0 5 0 5 -3.0625 5.0625 C-4.5165625 5.0315625 -4.5165625 5.0315625 -6 5 C-5.67 4.01 -5.34 3.02 -5 2 C-2.4375 0.8125 -2.4375 0.8125 0 0 Z " fill="#553637" transform="translate(53,89)"/>
<path d="M0 0 C0.33 0.66 0.66 1.32 1 2 C2.65 2 4.3 2 6 2 C3.875 4.0625 3.875 4.0625 1 6 C-2.3125 5.75 -2.3125 5.75 -5 5 C-4.360625 4.731875 -3.72125 4.46375 -3.0625 4.1875 C-0.66868314 3.11332248 -0.66868314 3.11332248 0 0 Z " fill="#EEC4BD" transform="translate(60,59)"/>
<path d="M0 0 C0.66 0 1.32 0 2 0 C2 0.99 2 1.98 2 3 C2.99 3.33 3.98 3.66 5 4 C5.33 4.99 5.66 5.98 6 7 C4.68 7.33 3.36 7.66 2 8 C0 2.25 0 2.25 0 0 Z " fill="#3F2024" transform="translate(120,31)"/>
<path d="M0 0 C2.4375 0.375 2.4375 0.375 5 1 C5.33 1.66 5.66 2.32 6 3 C6.99 3.33 7.98 3.66 9 4 C9 4.66 9 5.32 9 6 C6.03 5.505 6.03 5.505 3 5 C3 4.34 3 3.68 3 3 C2.01 2.67 1.02 2.34 0 2 C0 1.34 0 0.68 0 0 Z " fill="#E5A499" transform="translate(56,81)"/>
<path d="M0 0 C1.76462683 3.08809695 2 4.23312136 2 8 C2.66 8.33 3.32 8.66 4 9 C3.34 9 2.68 9 2 9 C1.67 10.32 1.34 11.64 1 13 C0 12 0 12 -0.09765625 9.27734375 C-0.08605469 8.17519531 -0.07445312 7.07304688 -0.0625 5.9375 C-0.05347656 4.83277344 -0.04445312 3.72804688 -0.03515625 2.58984375 C-0.02355469 1.73519531 -0.01195312 0.88054687 0 0 Z " fill="#BB8880" transform="translate(34,73)"/>
<path d="M0 0 C2.4375 0.75 2.4375 0.75 5 2 C5.8125 4.125 5.8125 4.125 6 6 C4.02 5.34 2.04 4.68 0 4 C0 2.68 0 1.36 0 0 Z " fill="#9E8985" transform="translate(117,24)"/>
<path d="M0 0 C0 0.66 0 1.32 0 2 C-3.3 2 -6.6 2 -10 2 C-6.64608848 -1.35391152 -4.35183427 -1.05855428 0 0 Z " fill="#B56564" transform="translate(88,118)"/>
<path d="M0 0 C0.33 0 0.66 0 1 0 C1.19622241 4.21878192 0.80230168 7.17010894 -1 11 C-1.66 11 -2.32 11 -3 11 C-2.53199289 6.94393835 -2.12046792 3.53411321 0 0 Z " fill="#36171B" transform="translate(17,88)"/>
<path d="M0 0 C0 2.31 0 4.62 0 7 C-0.66 7 -1.32 7 -2 7 C-2.33 7.99 -2.66 8.98 -3 10 C-3 7.03 -3 4.06 -3 1 C-1 0 -1 0 0 0 Z " fill="#E0B7B1" transform="translate(115,81)"/>
<path d="M0 0 C0.99 0 1.98 0 3 0 C5.09230769 4.43076923 5.09230769 4.43076923 4.625 7.3125 C4.41875 7.869375 4.2125 8.42625 4 9 C0 2.25 0 2.25 0 0 Z " fill="#7D5755" transform="translate(92,45)"/>
<path d="M0 0 C0.33 0.66 0.66 1.32 1 2 C1.66 2 2.32 2 3 2 C4.06775224 3.96466413 5.06553465 5.96855359 6 8 C5.67 8.66 5.34 9.32 5 10 C0 4.5 0 4.5 0 0 Z " fill="#A18A87" transform="translate(123,30)"/>
<path d="M0 0 C0 0.66 0 1.32 0 2 C-3.3 2 -6.6 2 -10 2 C-6.80505194 -1.19494806 -4.22040044 -1.35655728 0 0 Z " fill="#DE998B" transform="translate(104,76)"/>
<path d="M0 0 C1.0625 1.8125 1.0625 1.8125 2 4 C1.67 4.99 1.34 5.98 1 7 C-1.31 7 -3.62 7 -6 7 C-6 6.67 -6 6.34 -6 6 C-4.35 6 -2.7 6 -1 6 C-1.20625 5.38125 -1.4125 4.7625 -1.625 4.125 C-1.74875 3.42375 -1.8725 2.7225 -2 2 C-1.34 1.34 -0.68 0.68 0 0 Z " fill="#523335" transform="translate(106,52)"/>
<path d="M0 0 C2.31 0.33 4.62 0.66 7 1 C7 1.99 7 2.98 7 4 C5.35 3.67 3.7 3.34 2 3 C2 2.34 2 1.68 2 1 C1.34 0.67 0.68 0.34 0 0 Z " fill="#988380" transform="translate(105,18)"/>
<path d="M0 0 C0.66 0.33 1.32 0.66 2 1 C-0.77079887 4.80984844 -4.62868145 5.06840752 -9 6 C-7.73295613 3.46591226 -6.56876843 3.06790028 -4.0625 1.8125 C-3.35222656 1.44769531 -2.64195313 1.08289063 -1.91015625 0.70703125 C-1.27980469 0.47371094 -0.64945313 0.24039062 0 0 Z " fill="#35171A" transform="translate(54,17)"/>
<path d="M0 0 C0.66 0 1.32 0 2 0 C2 1.65 2 3.3 2 5 C0.02 5.99 0.02 5.99 -2 7 C-1.125 2.25 -1.125 2.25 0 0 Z " fill="#E4B8B1" transform="translate(95,145)"/>
<path d="M0 0 C-3.47109168 2.31406112 -4.94878113 2.08619615 -9 2 C-9.99 2.495 -9.99 2.495 -11 3 C-10.67 2.01 -10.34 1.02 -10 0 C-6.33694766 -0.74926071 -3.57644848 -1.2380014 0 0 Z " fill="#BB6A69" transform="translate(79,113)"/>
<path d="M0 0 C0.99 0.33 1.98 0.66 3 1 C3 1.66 3 2.32 3 3 C4.65 3 6.3 3 8 3 C8 3.33 8 3.66 8 4 C4.7 4 1.4 4 -2 4 C-1.34 3.67 -0.68 3.34 0 3 C0 2.01 0 1.02 0 0 Z " fill="#674B4B" transform="translate(131,110)"/>
<path d="M0 0 C1.9451 2.91765 2.45276317 4.62537285 3 8 C2.01 8 1.02 8 0 8 C-0.38063221 5.6739143 -0.71269945 3.33944736 -1 1 C-0.67 0.67 -0.34 0.34 0 0 Z " fill="#4F3131" transform="translate(90,81)"/>
<path d="M0 0 C1 2 1 2 0.1875 5.5625 C-1 9 -1 9 -3 10 C-2.69201674 8.51988629 -2.378482 7.04092675 -2.0625 5.5625 C-1.88847656 4.73878906 -1.71445312 3.91507812 -1.53515625 3.06640625 C-1 1 -1 1 0 0 Z " fill="#35171A" transform="translate(21,77)"/>
<path d="M0 0 C2.31 0.33 4.62 0.66 7 1 C6.67 1.99 6.34 2.98 6 4 C3.69 3.34 1.38 2.68 -1 2 C-0.67 1.34 -0.34 0.68 0 0 Z " fill="#3F2226" transform="translate(108,57)"/>
<path d="M0 0 C0.33 0.66 0.66 1.32 1 2 C1.66 2.33 2.32 2.66 3 3 C2.34 3.66 1.68 4.32 1 5 C-0.32 5 -1.64 5 -3 5 C-1.125 1.125 -1.125 1.125 0 0 Z " fill="#B99A96" transform="translate(110,124)"/>
<path d="M0 0 C0.625 1.875 0.625 1.875 1 4 C0.34 4.66 -0.32 5.32 -1 6 C-1.99 6 -2.98 6 -4 6 C-2.84826645 3.53199953 -1.95216435 1.95216435 0 0 Z " fill="#E6BFB8" transform="translate(66,114)"/>
<path d="M0 0 C0.66 1.32 1.32 2.64 2 4 C1.01 5.485 1.01 5.485 0 7 C-1.32 7 -2.64 7 -4 7 C-4 6.34 -4 5.68 -4 5 C-2.68 4.67 -1.36 4.34 0 4 C0 2.68 0 1.36 0 0 Z " fill="#C6867B" transform="translate(54,92)"/>
<path d="M0 0 C0.33 0 0.66 0 1 0 C1 2.97 1 5.94 1 9 C0.01 9 -0.98 9 -2 9 C-1.34 6.03 -0.68 3.06 0 0 Z " fill="#967371" transform="translate(114,88)"/>
<path d="M0 0 C1.9375 0.3125 1.9375 0.3125 4 1 C4.33 1.99 4.66 2.98 5 4 C3.35 4 1.7 4 0 4 C0 2.68 0 1.36 0 0 Z " fill="#E6BFB9" transform="translate(56,89)"/>
<path d="M0 0 C2.4375 0.6875 2.4375 0.6875 5 2 C5.8125 4.625 5.8125 4.625 6 7 C3.95880212 5.38405168 1.95927063 3.7143618 0 2 C0 1.34 0 0.68 0 0 Z " fill="#5F4444" transform="translate(150,86)"/>
<path d="M0 0 C0.99 0 1.98 0 3 0 C3 1.32 3 2.64 3 4 C3.66 4.33 4.32 4.66 5 5 C3.68 5.33 2.36 5.66 1 6 C0.67 4.02 0.34 2.04 0 0 Z " fill="#EAB7AD" transform="translate(89,73)"/>
<path d="M0 0 C2.9375 0.8125 2.9375 0.8125 6 2 C6.33 2.99 6.66 3.98 7 5 C4.69 4.34 2.38 3.68 0 3 C0 2.01 0 1.02 0 0 Z " fill="#947372" transform="translate(105,68)"/>
<path d="M0 0 C1.65 0 3.3 0 5 0 C4.34 1.32 3.68 2.64 3 4 C2.01 4 1.02 4 0 4 C0 2.68 0 1.36 0 0 Z " fill="#3B2023" transform="translate(40,62)"/>
</svg>
